<?xml version="1.0" encoding="UTF-8" standalone="no"?>
<svg id="svg4136" xmlns:rdf="http://www.w3.org/1999/02/22-rdf-syntax-ns#" xmlns="http://www.w3.org/2000/svg" height="1128pt" width="231pt" version="1.1" xmlns:cc="http://creativecommons.org/ns#" xmlns:dc="http://purl.org/dc/elements/1.1/" viewBox="0 0 231 1128">
 <metadata id="metadata4164">
  <rdf:RDF>
   <cc:Work rdf:about="">
    <dc:format>image/svg+xml</dc:format>
    <dc:type rdf:resource="http://purl.org/dc/dcmitype/StillImage"/>
    <dc:title/>
   </cc:Work>
  </rdf:RDF>
 </metadata>
 <g id="g4168">
  <path id="path4138" d="m152.7 0c-4.84 64.65-8.78 129.49-9.08 194.31-6.16 1.15-7.81 9.27-12.42 10.34-4.63-34.16-7.48-68.59-7.66-103.08-3.52-26.446-10.39-52.295-15.22-78.508 0.47-5.374-10.182-6.475-5.36 1.387 10.24 42.713 18.09 86.461 15.75 130.6-1.46 20.2 2.48 40.19 7.59 59.6-4.46 5.9-10.21 11.21-11.06 19.06-8.09-62.85-15.84-127.08-40.115-186.22-0.513-3.989-7.4-9.577-7.563-2.564 31.176 66.654 31.176 143.1 47.928 213-3.64 4.43-5.97 9.65-7.85 15.01-12.778-66.66-19.59-138.2-61.103-194.63-4.975-2.835-3.937 4.452-1.562 6.665 24.6 39.335 40.362 83.965 46.25 129.98 5.937 29.65 6.863 60.73 19.925 88.49-5.69 7.62-8.42 16.59-7.16 26.21-25.039-66.61-26.69-144.15-73.24-201.65-2.588-3.25-11.225-12.71-13-4.37 41.475 44.55 53.849 108.23 66.137 166.21 5.712 21.12 9.05 44.34 23.563 61.58-4.39 10.82-3.95 22.55-1.36 33.82-22.077-29.71-30.965-66.95-40.377-102.15-13.425-37.09-30.488-75.33-62.9-99.69-0.7005 0.39-2.113 1.17-2.813 1.55v4.43c22.2 17.87 38.5 42.51 49.475 68.61 19.612 48.75 23.413 107.32 62.645 145.88-7.4 16.37-0.94 34.2 5.43 49.8-49.987-42.85-49.163-115.94-87.226-166.49-3.95-3.17-13.849-18.44-16.287-7.4 45.625 40.45 42.45 108.22 76.287 156.15 13.196 16.48 30.016 29.36 46.106 42.81-1.17-15.4-2.62-30.75-9.04-44.96 5.76 2.76 6.91 9.77 10.73 14.27 3.98-3.54-15.45-38.26-0.05-15.7-2.71-16.6-17.08-34.92-14.83-52.22 13.67 20.01 5.3-7.93-0.89-15.08 8.45 3.36 8.76 14.44 14.06 19.68-0.82-12.84-5.15-26.05-16.4-33.52 8.91 5.44 5.58-3.08 3.71-8.88 4.38 1.94 3.97 10.12 7.59 10.88-0.9-9.92-5.71-18.88-8.85-28.19 6.05 3.6 8.8 10.42 13.03 15.73 5.75-5.41-20.58-36.45-2.7-22.11-2.27-13.74-6.55-27.01-13.75-38.97 4.22 2.27 7.31 6.04 11.01 9.02-1.24-5.16-3.5-9.99-5.1-15.04 4.35 3.88 7.1 9.1 10.62 13.66 3.18-8.57-8.67-19.03-8.48-24.6 19.24 17.09-10.89-38.48 7.94-13.88 4.32-1.51-11.57-25.12 3.32-8.65 3.4-11.2-16.16-18.7-5.29-28.49 5.38-19.64 6.45 9.82 14.8 11.68 0.23-3.78-4.87-19.23 1.94-11.74 6 4.96 0.21-7.59-0.99-10.48 11.53 2.31 12.95 14.83 15.79 24.03 12.64 12.71 11.88 32.01 4.3 47.22 4.29 8.08 8.65 16.3 9.81 25.56 3.9-12.53-11.2-21.49-5.4-33.29 14.33-37.77 25.79-76.6 33.94-116.18 6.87-32.2 18.25-64.438 40.5-89.363 2.27-3.275-2.75-5.463-4.65-2.375-44.26 50.748-41.39 125.22-67.78 182.48-1.67-6.23-6.48-10.56-10-15.71 14.98-68.83 5.39-142.97 34.63-208.3-6.45-6.6179-10.8 12.621-13.59 18.633-15.83 55.675-15.66 114.03-23.64 171.02-3.91-4.3-8.18-8.21-13.77-10.49-1.24-64.92 5.52-129.62 8.62-194.39h-4.87zm120.18 115.37c-1.73-0.08-4.16 1.02-5.28 2.13-34.11 29.7-49.29 73.61-63.92 114.96-7.24 24.35-10.92 51.19-24.86 72.66-0.46 7.06-2.74 13.83-3.76 20.81 12.72 16.8 8.12 41.53-1.72 58.66-27.19-2.59-40.64 36.06-24.89 55.79 4.94-7.1 7.89-15.24 11.76-22.89 3.72 2.81-3.06 10.45 0.55 13.72 4.7-6.8 3.6-17.15 9.45-22.64-0.41 6.92-3.71 15.72-1.78 21.43 6.5-12.62 10.26-27.19 6.19-41.28 2.17 0.88 3.12 3.28 4.5 5-0.92-2.83-2.1-5.59-2.74-8.51 24.57-31.42 28.68-72.86 48-107.09 16.21-27.53 35.84-56.24 64.37-71.78v-2.18c-1.37-1.19-2.57-4.32-4.57-2.22-33.14 20.75-58.27 53.42-72.58 89.65-9.55 22.92-15.46 47.34-27.04 69.4 0.93-10.28-0.57-25.04-6.72-36.02 32.59-68.61 36.45-153.78 96.82-206.72 0.47-2.04-0.44-2.82-1.78-2.88zm-112.63 110.01c-19.87 13.73-23.18 43.43-15.43 64.51-6.67 14.52-10.38 36.02-1.08 48.61 4.91-13.35 11.47-29.22 12.61-44.47 3.55 4.82 0.55 16.06 3.49 22.41 2.64-8.48 3.01-18.49 4.9-26.35 2.32 8.61 2.27 18.11 3.71 26.32 5.22-13.71 6.08-30.13-2.9-42.57-9.36-1.85-13.73 7.46-19.51 12.1 1.5-11.89 8.56-22.31 9.1-34.39 4.62 0.98-0.33 12.26 3.33 14.84 3.1-7.23 2.86-15.93 5.06-22.75 2.83 4.96 0.72 12.61 3.68 16.25 3.95-11.55 4.75-27.44-6.96-34.51zm115.81 52.02c-0.46 0.05-0.99 0.21-1.6 0.5-35.96 18.94-49.64 59.74-63.96 95.1-12.88 28-25.45 56.89-45.72 80.5-0.83 1.95-2.54 1.09-2.32-0.79-5.52 7.82-13.12 16.03-12.36 26.36-0.19 181.12-0.12 362.24-0.04 543.33 2.12 2.2-2.17 13.5 2.06 13.7 25.78-54.2 40.76-113.65 66.82-167.24-9.32 38.29-20.78 76.11-29.05 114.65 25.03-63.75 41.74-133.52 62.41-199.86-54.55 63.45-84.77 144.94-100.09 226.35-2.2-176.18-0.4-356.78-0.9-534.61 40-34.09 58.44-86.03 77.73-133.84 10.56-22.67 24.86-45.16 46.93-58.08 3.25-1.53 3.35-6.43 0.09-6.07zm-109.83 47.92c-0.54-0.01-1.11 0.02-1.7 0.08-22.32 12.26-28.04 45.68-18.42 66.91 7.83-15.26 14.3-31.96 16.14-48.7 4.16 8.63 0.39 19.78 2.37 27.43 3.03-10.07 3.83-22.29 6.35-30.86 2.38 9.33 3.06 18.92 1.71 28.46 3.75-8.27 10.4-43.04-6.45-43.32zm-27.33 168.48c0.31 11.28-1.39 22.79 0.76 33.94-0.44-11.19 2.24-23.2-0.76-33.94zm1.25 39.71c-1.75 44.05-0.65 88.11-3.39 132.11-1.91 76.09 5.34 152.43 0.94 228.32 0.61 6.4 4.22 12 5.18 18.35 3.27-17.65 4.62-37.45 0.55-55.75-3.08-82.04 1.14-164.24-0.77-246.22 0.59-25.31 3.99-52.15-2.51-76.81zm-70.375 233.38c9.45 57.83 40.535 108.89 68.465 159.35-0.85 93.86-1.3 188.16-2.53 281.96-4.76-5-2.97-20.7-6.5-29.7-0.38 1.3-0.82 2.7-1.31 4-13.65-47.3-29.862-95.3-45.537-141.1 3.288 28 8.499 55.7 12.699 83.6-8.45-16.2-12.513-34.8-17.988-52.4-1.25 18.5 2.864 40.3 5.477 60-18.888-38.9-20.401-83.3-27.389-125.4-1.262 51.9 14.013 102.2 27.125 151.8 11.213 43.1 29.413 84 52.333 122.1-0.76 42.6 4.24 85.9-4.17 128 1.95-0.1 5.85-0.2 7.8-0.2 2.1-161.6 4.58-323 5.96-484.19-12.47-31.83-29.47-61.85-39.14-94.77-6.171-14.4-9.258-32.25-17.758-44.6 2.438 14.31 7.214 28.12 10.176 42.34-11.475-19.09-15.925-41.92-27.713-60.79zm176.68 267.91c-49.9 62.2-77.51 139.2-94.32 216.4-2.22-59.4-0.06-123.5-1.05-184.6-1.79 67.6-1.84 136.5-0.09 204.5 10.6-29.8 20.46-63.4 34.18-92.1-5.34 28.3-12.58 56.2-16.67 84.8 12.56-30.4 21.4-63.8 34.25-93.8-5.97 35.3-15.75 69.8-21.71 105.1 26.26-75.6 45.99-154.4 64.54-232.6 1.27 16.2-5.33 32.5-5.47 49 3.7-17.8 14.32-39.6 6.34-56.7z" transform="scale(.8)" fill="#d9970e"/>
  <path id="path4142" d="m148.81 201.16c1.2 2.89 6.99 15.44 0.99 10.48-6.81-7.49-1.71 7.96-1.94 11.74-8.35-1.86-9.42-31.32-14.8-11.68-10.87 9.79 8.69 17.29 5.29 28.49-14.89-16.47 1 7.14-3.32 8.65-18.83-24.6 11.3 30.97-7.94 13.88-0.19 5.57 11.66 16.03 8.48 24.6-3.52-4.56-6.27-9.78-10.62-13.66 1.6 5.05 3.86 9.88 5.1 15.04-3.7-2.98-6.79-6.75-11.01-9.02 7.2 11.96 11.48 25.23 13.75 38.97-17.88-14.34 8.45 16.7 2.7 22.11-4.23-5.31-6.98-12.13-13.03-15.73 3.14 9.31 7.95 18.27 8.85 28.19-3.62-0.76-3.21-8.94-7.59-10.88 1.87 5.8 5.2 14.32-3.71 8.88 11.25 7.47 15.58 20.68 16.4 33.52-5.3-5.24-5.61-16.32-14.06-19.68 6.19 7.15 14.56 35.09 0.89 15.08-2.25 17.3 12.12 35.62 14.83 52.22-15.4-22.56 4.03 12.16 0.05 15.7-3.82-4.5-4.97-11.51-10.73-14.27 6.42 14.21 7.87 29.56 9.04 44.96 0.66 5.04 0.35 10.31 2.47 15.05 3 10.74 0.32 22.75 0.76 33.94 0.16 1.91 0.34 3.83 0.49 5.77 6.5 24.66 3.1 51.5 2.51 76.81 1.91 81.98-2.31 164.18 0.77 246.22 4.07 18.3 2.72 38.1-0.55 55.75-0.96-6.35-4.57-11.95-5.18-18.35-20.56-66.52-34.69-138.57-76.45-195.12-0.688 21.87 0.538 46.98 8.525 68.07 11.788 18.87 16.238 41.7 27.713 60.79-2.962-14.22-7.738-28.03-10.176-42.34 8.5 12.35 11.587 30.2 17.758 44.6 9.67 32.92 26.67 62.94 39.14 94.77-1.38 161.19-3.86 322.59-5.96 484.19l0.32 1.1h5.68c2.95-1.5 6.16-2.9 8.29-5.6-5.48-15.6-6.66-32.9 1.7-47.7 27.05-36.6 40.77-80.7 52.01-124.2 12.36-46.7 24.66-93.6 33.87-141 0.14-16.5 6.74-32.8 5.47-49-18.55 78.2-38.28 157-64.54 232.6 5.96-35.3 15.74-69.8 21.71-105.1-12.85 30-21.69 63.4-34.25 93.8 4.09-28.6 11.33-56.5 16.67-84.8-13.72 28.7-23.58 62.3-34.18 92.1-1.75-68-1.7-136.9 0.09-204.5 18.41-16.1 30.73-38 40.22-60.3 20.85-41.59 40.06-84.92 45.91-131.55 4-31.89 18.87-61.68 18.79-94.11-2.46-1.83-2.81 1.4-3.71 3.01-20.67 66.34-37.38 136.11-62.41 199.86 8.27-38.54 19.73-76.36 29.05-114.65-26.06 53.59-41.04 113.04-66.82 167.24-4.23-0.2 0.06-11.5-2.06-13.7-0.08-181.09-0.15-362.21 0.04-543.33-0.76-10.33 6.84-18.54 12.36-26.36 13.08-15.88 22.96-38.3 16.66-58.99-1.38-1.72-2.33-4.12-4.5-5 4.07 14.09 0.31 28.66-6.19 41.28-1.93-5.71 1.37-14.51 1.78-21.43-5.85 5.49-4.75 15.84-9.45 22.64-3.61-3.27 3.17-10.91-0.55-13.72-3.87 7.65-6.82 15.79-11.76 22.89-15.75-19.73-2.3-58.38 24.89-55.79 9.84-17.13 14.44-41.86 1.72-58.66 1.02-6.98 3.3-13.75 3.76-20.81-0.02-2.38 0.01-4.77-0.11-7.15-1.16-9.26-5.52-17.48-9.81-25.56 7.58-15.21 8.34-34.51-4.3-47.22-2.84-9.2-4.26-21.72-15.79-24.03zm11.44 24.22c11.71 7.07 10.91 22.96 6.96 34.51-2.96-3.64-0.85-11.29-3.68-16.25-2.2 6.82-1.96 15.52-5.06 22.75-3.66-2.58 1.29-13.86-3.33-14.84-0.54 12.08-7.6 22.5-9.1 34.39 5.78-4.64 10.15-13.95 19.51-12.1 8.98 12.44 8.12 28.86 2.9 42.57-1.44-8.21-1.39-17.71-3.71-26.32-1.89 7.86-2.26 17.87-4.9 26.35-2.94-6.35 0.06-17.59-3.49-22.41-1.14 15.25-7.7 31.12-12.61 44.47-9.3-12.59-5.59-34.09 1.08-48.61-7.75-21.08-4.44-50.78 15.43-64.51zm5.98 99.94c16.85 0.28 10.2 35.05 6.45 43.32 1.35-9.54 0.67-19.13-1.71-28.46-2.52 8.57-3.32 20.79-6.35 30.86-1.98-7.65 1.79-18.8-2.37-27.43-1.84 16.74-8.31 33.44-16.14 48.7-9.62-21.23-3.9-54.65 18.42-66.91 0.59-0.06 1.16-0.09 1.7-0.08zm-109.07 626c-9.562 12.39 0.35 38.83-2 55.88 6.988 42.1 8.501 86.5 27.389 125.4-2.613-19.7-6.727-41.5-5.477-60 5.475 17.6 9.538 36.2 17.988 52.4-4.2-27.9-9.411-55.6-12.699-83.6 15.675 45.8 31.887 93.8 45.537 141.1 0.49-1.3 0.93-2.7 1.31-4-12.16-78.8-33.81-156.9-72.048-227.18z" transform="scale(.8)" fill="#4b3405"/>
 </g>
</svg>
