<?xml version="1.0" encoding="UTF-8" standalone="no"?>
<!-- Generator: Adobe Illustrator 16.0.0, SVG Export Plug-In . SVG Version: 6.00 Build 0)  -->

<svg
   xmlns:dc="http://purl.org/dc/elements/1.1/"
   xmlns:cc="http://creativecommons.org/ns#"
   xmlns:rdf="http://www.w3.org/1999/02/22-rdf-syntax-ns#"
   xmlns:svg="http://www.w3.org/2000/svg"
   xmlns="http://www.w3.org/2000/svg"
   xmlns:sodipodi="http://sodipodi.sourceforge.net/DTD/sodipodi-0.dtd"
   xmlns:inkscape="http://www.inkscape.org/namespaces/inkscape"
   version="1.1"
   id="coffee_grinder"
   x="0px"
   y="0px"
   width="242px"
   height="309px"
   viewBox="0 0 242 309"
   enable-background="new 0 0 242 309"
   xml:space="preserve"
   sodipodi:docname="coffee-grinder_mod.svg"
   inkscape:version="0.92.3 (2405546, 2018-03-11)"><metadata
   id="metadata46"><rdf:RDF><cc:Work
       rdf:about=""><dc:format>image/svg+xml</dc:format><dc:type
         rdf:resource="http://purl.org/dc/dcmitype/StillImage" /><dc:title></dc:title></cc:Work></rdf:RDF></metadata><defs
   id="defs44">
	
	
	
	
	
	
	
	
	
	
	
	
	
	
	
	
	
	
	
</defs><sodipodi:namedview
   pagecolor="#ffffff"
   bordercolor="#666666"
   borderopacity="1"
   objecttolerance="10"
   gridtolerance="10"
   guidetolerance="10"
   inkscape:pageopacity="0"
   inkscape:pageshadow="2"
   inkscape:window-width="1920"
   inkscape:window-height="1138"
   id="namedview42"
   showgrid="false"
   inkscape:zoom="3.1359223"
   inkscape:cx="114.30341"
   inkscape:cy="154.5"
   inkscape:window-x="-8"
   inkscape:window-y="-8"
   inkscape:window-maximized="1"
   inkscape:current-layer="coffee_grinder" />
<g
   id="g884"
   transform="matrix(1.1,0,0,1.05,-11.96086,-11.20455)"><rect
     x="32.363998"
     y="168.63699"
     width="177.27299"
     height="95.454002"
     id="rect12"
     style="fill:#c97629" /><polygon
     points="32.364,175.455 202.818,175.455 202.818,264.091 209.637,264.091 209.637,175.455 209.637,168.637 32.364,168.637 "
     id="polygon26"
     style="fill:#9e521e" /></g><path
   style="fill:#014463"
   inkscape:connector-curvature="0"
   id="path38"
   d="m 223.272,265.456 v -98.185 c 8.184,-2.724 13.637,-10.228 13.637,-19.09 0,-5.453 -2.044,-10.906 -6.133,-14.315 -3.409,-4.091 -8.868,-6.139 -14.321,-6.139 H 25.545 c -11.589,0 -20.455,8.865 -20.455,20.454 0,5.457 2.047,10.906 6.139,14.315 2.044,2.051 4.771,4.095 7.498,4.774 v 98.185 c -2.727,0.679 -5.454,2.724 -7.498,4.774 -4.092,3.408 -6.139,8.861 -6.139,14.314 0,11.593 8.866,20.455 20.455,20.455 h 190.91 c 5.453,0 10.912,-2.044 14.321,-6.139 4.089,-4.089 6.133,-8.862 6.133,-14.316 0,-5.453 -2.044,-10.906 -6.133,-14.314 -2.05,-2.049 -4.773,-4.094 -7.504,-4.773 m -13.635,-1.365 H 32.364 V 168.637 H 209.637 Z M 25.545,141.364 h 190.91 c 2.044,0 3.408,0.676 4.773,2.047 1.365,1.361 2.044,2.727 2.044,4.771 0,4.085 -2.723,6.818 -6.817,6.818 H 25.545 c -2.044,0 -3.409,-0.679 -4.771,-2.044 -1.365,-1.365 -2.047,-2.727 -2.047,-4.774 0.001,-4.088 2.73,-6.818 6.818,-6.818 m 195.684,147.955 c -1.365,1.365 -2.729,2.044 -4.773,2.044 H 25.545 c -4.088,0 -6.818,-2.729 -6.818,-6.818 0,-2.044 0.682,-3.408 2.047,-4.773 1.361,-1.365 2.727,-2.044 4.771,-2.044 h 190.91 c 2.044,0 3.408,0.679 4.773,2.044 1.365,1.365 2.044,2.729 2.044,4.773 0,2.045 -0.678,3.41 -2.043,4.774" /><path
   style="fill:#014463"
   inkscape:connector-curvature="0"
   id="path36"
   d="M 230.091,5 H 202.819 C 198.73,5 196,7.727 196,11.818 v 20.454 h -61.363 c -11.593,0 -20.455,8.862 -20.455,20.455 -4.091,0 -6.818,2.727 -6.818,6.818 V 60.91 C 72.59,67.046 46,97.728 46,134.545 c 0,4.092 2.727,6.818 6.818,6.818 h 136.363 c 4.088,0 6.818,-2.727 6.818,-6.818 0,-36.817 -26.594,-67.5 -61.363,-73.635 v -1.365 c 0,-4.091 -2.73,-6.818 -6.818,-6.818 0,-4.092 2.729,-6.818 6.818,-6.818 h 68.182 27.272 c 4.089,0 6.818,-2.727 6.818,-6.818 V 11.818 C 236.909,7.727 234.18,5 230.091,5 M 181.685,127.728 H 60.319 C 63.728,97.045 89.636,73.182 121,73.182 c 31.361,0 57.275,23.863 60.685,54.546 M 223.272,32.272 H 209.636 V 18.636 h 13.636 z" /><path
   style="fill:#014463"
   inkscape:connector-curvature="0"
   id="path2"
   d="m 121,209.545 c 3.762,0 6.818,3.05 6.818,6.818 0,3.77 -3.057,6.818 -6.818,6.818 -3.761,0 -6.818,-3.049 -6.818,-6.818 0,-3.768 3.056,-6.818 6.818,-6.818" /><g
   id="g876"
   transform="matrix(1.1,0,0,1.1,-11.32583,-12.7728)"><path
     d="M 181.678,127.728 C 178.269,97.045 152.361,73.182 121,73.182 c -31.364,0 -57.272,23.864 -60.681,54.546 z"
     id="path4"
     inkscape:connector-curvature="0"
     style="fill:#efae50" /><path
     d="m 134.637,74.547 c 15.001,13.636 24.543,32.047 27.272,53.181 h 19.775 C 178.955,101.819 159.865,80.676 134.637,74.547"
     id="path6"
     inkscape:connector-curvature="0"
     style="fill:#ffa233" /><path
     d="M 110.09,73.861 C 95.089,87.497 84.861,105.908 82.134,127.724 H 59.636 C 62.363,100.451 83.5,78.635 110.09,73.861"
     id="path8"
     inkscape:connector-curvature="0"
     style="fill:#fcd68b" /><path
     d="m 153.047,82.044 c 10.906,12.271 18.41,27.962 19.775,45.684 h 8.862 C 179.641,108.634 168.728,91.589 153.047,82.044"
     id="path10"
     inkscape:connector-curvature="0"
     style="fill:#e77925" /></g><path
   style="fill:#014463"
   inkscape:connector-curvature="0"
   id="path14"
   d="M 189.182,250.455 H 52.818 c -4.092,0 -6.818,-2.73 -6.818,-6.818 v -54.546 c 0,-4.088 2.727,-6.818 6.818,-6.818 h 136.363 c 4.088,0 6.818,2.73 6.818,6.818 v 54.546 c 0.001,4.088 -2.729,6.818 -6.817,6.818 M 59.636,236.818 H 182.363 V 195.909 H 59.636 Z" /><path
   style="fill:#014463"
   inkscape:connector-curvature="0"
   id="path16"
   d="m 121,209.545 c 3.762,0 6.818,3.05 6.818,6.818 0,3.77 -3.057,6.818 -6.818,6.818 -3.761,0 -6.818,-3.049 -6.818,-6.818 0,-3.768 3.056,-6.818 6.818,-6.818" /><path
   style="fill:#c97629;stroke-width:1.27279222"
   inkscape:connector-curvature="0"
   id="path20"
   d="m 18.09044,295.363 h 206.1828 c 2.20752,0 3.68064,-1.0185 5.15484,-3.066 1.4742,-2.046 2.20752,-4.0935 2.20752,-7.161 0,-3.066 -0.73332,-5.112 -2.20752,-7.1595 -1.4742,-2.0475 -2.94732,-3.066 -5.15484,-3.066 H 18.09044 c -2.20752,0 -3.68172,1.0185 -5.15592,3.066 -1.47096,2.0475 -2.20752,4.0935 -2.20752,7.1595 0.0011,6.1335 2.94516,10.227 7.36344,10.227" /><g
   id="g888"
   transform="matrix(1.1,0,0,1.05,-11.9636,-11.435325)"><polygon
     points="175.545,202.728 182.363,195.909 66.455,195.909 59.636,195.909 59.636,202.728 59.636,236.818 66.455,230 66.455,202.728 "
     id="polygon22"
     style="fill:#da8c36" /><polygon
     points="59.636,236.818 175.545,236.818 182.363,236.818 182.363,230 182.363,195.909 175.545,202.728 175.545,230 66.455,230 "
     id="polygon24"
     style="fill:#a55723" /></g><path
   style="fill:#a05624;stroke-width:1.27279222"
   inkscape:connector-curvature="0"
   id="path28"
   d="m 18.09044,295.363 h 206.1828 c 2.20752,0 3.68064,-1.0185 5.15484,-3.066 1.4742,-2.046 2.20752,-4.0935 2.20752,-7.161 H 10.72808 c 0,6.1335 2.94408,10.227 7.36236,10.227" /><g
   id="g880"
   transform="matrix(1.08,0,0,1.5,-10.22262,-75.5)"><path
     d="m 25.545,155 h 190.91 c 4.088,0 6.817,-2.727 6.817,-6.818 0,-2.044 -0.679,-3.409 -2.044,-4.774 -1.365,-1.362 -2.729,-2.044 -4.773,-2.044 H 25.545 c -4.091,0 -6.818,2.727 -6.818,6.818 0,2.044 0.682,3.409 2.044,4.774 1.365,1.361 2.73,2.044 4.774,2.044"
     id="path18"
     inkscape:connector-curvature="0"
     style="fill:#c97629" /><path
     d="m 25.545,155 h 190.91 c 2.044,0 3.408,-0.683 4.773,-2.044 1.365,-1.365 2.044,-2.73 2.044,-4.774 H 18.728 c 0,4.091 2.726,6.818 6.817,6.818"
     id="path30"
     inkscape:connector-curvature="0"
     style="fill:#a05624" /></g><rect
   style="fill:#c97629;stroke-width:1.4667058"
   id="rect32"
   height="20"
   width="20"
   y="14.271999"
   x="206.36148" /><rect
   style="fill:#9b5323;stroke-width:1.4667058"
   id="rect34"
   height="20"
   width="9.9985332"
   y="14.271999"
   x="216.3615" />
</svg>