<?xml version="1.0" encoding="utf-8"?>
<!-- Generator: Adobe Illustrator 16.0.0, SVG Export Plug-In . SVG Version: 6.00 Build 0)  -->
<!DOCTYPE svg PUBLIC "-//W3C//DTD SVG 1.1//EN" "http://www.w3.org/Graphics/SVG/1.1/DTD/svg11.dtd">
<svg version="1.1" id="coffee_grinder" xmlns="http://www.w3.org/2000/svg" xmlns:xlink="http://www.w3.org/1999/xlink" x="0px"
	 y="0px" width="242px" height="309px" viewBox="0 0 242 309" enable-background="new 0 0 242 309" xml:space="preserve">
<g id="grinder_group">
	<path fill="#014463" d="M121,209.545c3.762,0,6.818,3.05,6.818,6.818c0,3.77-3.057,6.818-6.818,6.818s-6.818-3.049-6.818-6.818
		C114.182,212.595,117.238,209.545,121,209.545"/>
	<path fill="#EFAE50" d="M181.678,127.728C178.269,97.045,152.361,73.182,121,73.182c-31.364,0-57.272,23.864-60.681,54.546H181.678
		z"/>
	<path fill="#FFA233" d="M134.637,74.547c15.001,13.636,24.543,32.047,27.272,53.181h19.775
		C178.955,101.819,159.865,80.676,134.637,74.547"/>
	<path fill="#FCD68B" d="M110.09,73.861c-15.001,13.636-25.229,32.047-27.956,53.863H59.636
		C62.363,100.451,83.5,78.635,110.09,73.861"/>
	<path fill="#E77925" d="M153.047,82.044c10.906,12.271,18.41,27.962,19.775,45.684h8.862
		C179.641,108.634,168.728,91.589,153.047,82.044"/>
	<rect x="32.364" y="168.637" fill="#C97629" width="177.273" height="95.454"/>
	<path fill="#014463" d="M189.182,250.455H52.818c-4.092,0-6.818-2.73-6.818-6.818v-54.546c0-4.088,2.727-6.818,6.818-6.818h136.363
		c4.088,0,6.818,2.73,6.818,6.818v54.546C196,247.725,193.27,250.455,189.182,250.455 M59.636,236.818h122.727v-40.909H59.636
		V236.818z"/>
	<path fill="#014463" d="M121,209.545c3.762,0,6.818,3.05,6.818,6.818c0,3.77-3.057,6.818-6.818,6.818s-6.818-3.049-6.818-6.818
		C114.182,212.595,117.238,209.545,121,209.545"/>
	<path fill="#C97629" d="M25.545,155h190.91c4.088,0,6.817-2.727,6.817-6.818c0-2.044-0.679-3.409-2.044-4.774
		c-1.365-1.362-2.729-2.044-4.773-2.044H25.545c-4.091,0-6.818,2.727-6.818,6.818c0,2.044,0.682,3.409,2.044,4.774
		C22.136,154.317,23.501,155,25.545,155"/>
	<path fill="#C97629" d="M25.545,291.363h190.91c2.044,0,3.408-0.679,4.773-2.044c1.365-1.364,2.044-2.729,2.044-4.774
		c0-2.044-0.679-3.408-2.044-4.773s-2.729-2.044-4.773-2.044H25.545c-2.044,0-3.409,0.679-4.774,2.044
		c-1.362,1.365-2.044,2.729-2.044,4.773C18.728,288.634,21.454,291.363,25.545,291.363"/>
	<polygon fill="#DA8C36" points="182.363,195.909 66.455,195.909 59.636,195.909 59.636,202.728 59.636,236.818 66.455,230 
		66.455,202.728 175.545,202.728 	"/>
	<polygon fill="#A55723" points="175.545,202.728 175.545,230 66.455,230 59.636,236.818 175.545,236.818 182.363,236.818 
		182.363,230 182.363,195.909 	"/>
	<polygon fill="#9E521E" points="32.364,168.637 32.364,175.455 202.818,175.455 202.818,264.091 209.637,264.091 209.637,175.455 
		209.637,168.637 	"/>
	<path fill="#A05624" d="M25.545,291.363h190.91c2.044,0,3.408-0.679,4.773-2.044c1.365-1.364,2.044-2.729,2.044-4.774H18.728
		C18.728,288.634,21.454,291.363,25.545,291.363"/>
	<path fill="#A05624" d="M25.545,155h190.91c2.044,0,3.408-0.683,4.773-2.044c1.365-1.365,2.044-2.73,2.044-4.774H18.728
		C18.728,152.273,21.454,155,25.545,155"/>
	<rect x="209.637" y="18.636" fill="#C97629" width="13.636" height="13.636"/>
	<rect x="216.455" y="18.636" fill="#9B5323" width="6.817" height="13.636"/>
	<path fill="#014463" d="M230.091,5h-27.272C198.73,5,196,7.727,196,11.818v20.454h-61.363c-11.593,0-20.455,8.862-20.455,20.455
		c-4.091,0-6.818,2.727-6.818,6.818v1.365C72.59,67.046,46,97.728,46,134.545c0,4.092,2.727,6.818,6.818,6.818h136.363
		c4.088,0,6.818-2.727,6.818-6.818c0-36.817-26.594-67.5-61.363-73.635v-1.365c0-4.091-2.73-6.818-6.818-6.818
		c0-4.092,2.729-6.818,6.818-6.818h68.182h27.272c4.089,0,6.818-2.727,6.818-6.818V11.818C236.909,7.727,234.18,5,230.091,5
		 M181.685,127.728H60.319C63.728,97.045,89.636,73.182,121,73.182C152.361,73.182,178.275,97.045,181.685,127.728 M223.272,32.272
		h-13.636V18.636h13.636V32.272z"/>
	<path fill="#014463" d="M223.272,265.456v-98.185c8.184-2.724,13.637-10.228,13.637-19.09c0-5.453-2.044-10.906-6.133-14.315
		c-3.409-4.091-8.868-6.139-14.321-6.139H25.545c-11.589,0-20.455,8.865-20.455,20.454c0,5.457,2.047,10.906,6.139,14.315
		c2.044,2.051,4.771,4.095,7.498,4.774v98.185c-2.727,0.679-5.454,2.724-7.498,4.774c-4.092,3.408-6.139,8.861-6.139,14.314
		c0,11.593,8.866,20.455,20.455,20.455h190.91c5.453,0,10.912-2.044,14.321-6.139c4.089-4.089,6.133-8.862,6.133-14.316
		c0-5.453-2.044-10.906-6.133-14.314C228.726,268.18,226.003,266.135,223.272,265.456 M209.637,264.091H32.364v-95.454h177.273
		V264.091z M25.545,141.364h190.91c2.044,0,3.408,0.676,4.773,2.047c1.365,1.361,2.044,2.727,2.044,4.771
		c0,4.085-2.723,6.818-6.817,6.818H25.545c-2.044,0-3.409-0.679-4.771-2.044c-1.365-1.365-2.047-2.727-2.047-4.774
		C18.728,144.094,21.457,141.364,25.545,141.364 M221.229,289.319c-1.365,1.365-2.729,2.044-4.773,2.044H25.545
		c-4.088,0-6.818-2.729-6.818-6.818c0-2.044,0.682-3.408,2.047-4.773c1.361-1.365,2.727-2.044,4.771-2.044h190.91
		c2.044,0,3.408,0.679,4.773,2.044s2.044,2.729,2.044,4.773C223.272,286.59,222.594,287.955,221.229,289.319"/>
</g>
</svg>
