<?xml version="1.0" encoding="UTF-8" standalone="no"?>
<!-- Created with Inkscape (http://www.inkscape.org/) -->

<svg
   xmlns:dc="http://purl.org/dc/elements/1.1/"
   xmlns:cc="http://creativecommons.org/ns#"
   xmlns:rdf="http://www.w3.org/1999/02/22-rdf-syntax-ns#"
   xmlns:svg="http://www.w3.org/2000/svg"
   xmlns="http://www.w3.org/2000/svg"
   xmlns:sodipodi="http://sodipodi.sourceforge.net/DTD/sodipodi-0.dtd"
   xmlns:inkscape="http://www.inkscape.org/namespaces/inkscape"
   id="svg1534"
   sodipodi:version="0.32"
   inkscape:version="0.92.3 (2405546, 2018-03-11)"
   width="453.89282"
   height="698.66431"
   sodipodi:docname="Héraldique_meuble_faux.svg"
   version="1.0"
   inkscape:export-filename="D:\Daten\qemu\farm\farming_tool_scythe_steel.png"
   inkscape:export-xdpi="8.8830309"
   inkscape:export-ydpi="8.8830309">
  <metadata
     id="metadata1539">
    <rdf:RDF>
      <cc:Work
         rdf:about="">
        <dc:format>image/svg+xml</dc:format>
        <dc:type
           rdf:resource="http://purl.org/dc/dcmitype/StillImage" />
      </cc:Work>
    </rdf:RDF>
  </metadata>
  <defs
     id="defs1537" />
  <sodipodi:namedview
     inkscape:window-height="1138"
     inkscape:window-width="1920"
     inkscape:pageshadow="2"
     inkscape:pageopacity="0.0"
     borderopacity="1.0"
     bordercolor="#666666"
     pagecolor="#ffffff"
     id="base"
     inkscape:zoom="2.0964187"
     inkscape:cx="203.02539"
     inkscape:cy="517.28675"
     inkscape:window-x="-8"
     inkscape:window-y="-8"
     inkscape:current-layer="svg1534"
     showgrid="false"
     inkscape:window-maximized="1" />
  <g
     id="g1876"
     transform="matrix(-1,0,0,1,564.84052,-135.7146)"
     style="fill:#d5d5d5;fill-opacity:1">
    <path
       inkscape:connector-curvature="0"
       sodipodi:nodetypes="cssssssssss"
       id="path2381"
       d="m 218.86248,367.91951 c -1.37685,-55.58618 87.84955,-139.18949 147.32615,-176.13121 70.20475,-43.60513 109.63499,-34.18098 109.33985,-34.77263 -13.84547,-27.75505 -92.51914,-21.63755 -126.34334,-9.9483 -95.76887,33.09659 -207.85193,146.38762 -236.27199,192.4995 -1.41149,2.29015 -0.16652,22.09368 10.94311,32.33196 12.68408,11.68924 14.4709,12.99681 22.38367,17.90693 1.69241,1.05019 13.04024,-10.66065 13.92761,-10.94312 0.60258,-0.19181 -18.89059,-19.26003 0.50374,-30.33981 16.94218,-9.6789 31.25775,21.51935 31.33081,21.38634 0.60637,-1.10383 26.88879,-0.84311 26.86039,-1.98966 z"
       style="fill:#d5d5d5;fill-opacity:1;fill-rule:evenodd;stroke:#000000;stroke-width:3;stroke-linecap:butt;stroke-linejoin:miter;stroke-miterlimit:4;stroke-dasharray:none;stroke-opacity:1" />
    <path
       inkscape:connector-curvature="0"
       sodipodi:nodetypes="cs"
       id="path3260"
       d="m 130.47871,344.77205 c 2.82278,-4.71302 142.28255,-184.17387 268.41005,-206.56851"
       style="fill:#d5d5d5;fill-opacity:1;fill-rule:evenodd;stroke:#000000;stroke-width:2;stroke-linecap:butt;stroke-linejoin:miter;stroke-miterlimit:4;stroke-dasharray:none;stroke-opacity:1" />
  </g>
  <path
     inkscape:connector-curvature="0"
     style="fill:#e7c030;fill-opacity:1;fill-rule:evenodd;stroke:#000000;stroke-width:3;stroke-linecap:butt;stroke-linejoin:miter;stroke-miterlimit:4;stroke-dasharray:none;stroke-opacity:1"
     d="m 406.16522,243.64545 c 0,0 -226.55949,233.93845 -226.82112,233.78493 -6.75608,-3.96434 -34.96781,-38.41354 -53.54048,-46.58169 -7.63645,-3.35847 -17.9152,8.44754 -16.23636,14.10765 1.68575,5.68336 50.49946,53.67204 49.88025,54.36028 -0.89138,8.68987 -141.143304,159.13417 -141.265784,159.17271 -20.47422,6.44381 -19.70657,27.98178 -10.44571,35.31645 7.35106,5.82209 28.61731,6.70075 34.81903,-19.39918 0.72666,-3.05812 88.042084,-98.98516 132.809744,-148.22958 l 27.85522,-28.85006 213.88834,-232.29267 c 0,0 4.97414,-2.61143 9.45087,-6.4664 4.47673,-3.85496 2.9845,-5.59591 8.45606,-8.95346 5.47156,-3.35755 9.82393,-1.61659 13.43019,-4.47673 3.60626,-2.86014 0.99483,-6.96381 0.99483,-6.96381 l -14.92244,3.4819 -15.41986,12.93279 z"
     id="path3266"
     sodipodi:nodetypes="cssssssscccssscccc" />
  <g
     id="g1898"
     transform="matrix(-1,0,0,1,564.84052,-135.7146)">
    <path
       inkscape:connector-curvature="0"
       sodipodi:nodetypes="cc"
       id="path3272"
       d="m 385.49642,612.15015 c -1.46022,13.73596 15.4417,20.65363 15.91726,20.89141"
       style="fill:none;fill-opacity:0.75;fill-rule:evenodd;stroke:#000000;stroke-width:2;stroke-linecap:butt;stroke-linejoin:miter;stroke-miterlimit:4;stroke-dasharray:none;stroke-opacity:1" />
    <path
       inkscape:connector-curvature="0"
       sodipodi:nodetypes="cc"
       id="path3274"
       d="m 387.89814,650.59677 c 0.87155,-0.81355 17.22015,-15.1238 16.99745,-15.27417"
       style="fill:none;fill-opacity:0.75;fill-rule:evenodd;stroke:#000000;stroke-width:2;stroke-linecap:butt;stroke-linejoin:miter;stroke-miterlimit:4;stroke-dasharray:none;stroke-opacity:1" />
    <path
       inkscape:connector-curvature="0"
       sodipodi:nodetypes="cc"
       id="path3276"
       d="m 363.11275,633.04156 c 7.74318,-8.08455 20.81079,-19.81595 21.88625,-20.89141"
       style="fill:none;fill-opacity:0.75;fill-rule:evenodd;stroke:#000000;stroke-width:2;stroke-linecap:butt;stroke-linejoin:miter;stroke-miterlimit:4;stroke-dasharray:none;stroke-opacity:1" />
  </g>
  <path
     style="fill:none;fill-opacity:0.75;fill-rule:evenodd;stroke:#000000;stroke-width:2;stroke-linecap:butt;stroke-linejoin:miter;stroke-miterlimit:4;stroke-dasharray:none;stroke-opacity:1"
     d="M 399.73418,281.69035 383.28414,266.52653"
     id="path3268"
     sodipodi:nodetypes="cc"
     inkscape:connector-curvature="0" />
  <path
     style="fill:none;fill-opacity:0.75;fill-rule:evenodd;stroke:#000000;stroke-width:2;stroke-linecap:butt;stroke-linejoin:miter;stroke-miterlimit:4;stroke-dasharray:none;stroke-opacity:1"
     d="m 400.19624,251.10667 16.07332,15.57591"
     id="path3270"
     sodipodi:nodetypes="cc"
     inkscape:connector-curvature="0" />
</svg>
