<?xml version="1.0" encoding="UTF-8" standalone="no"?>
<!-- Created with Inkscape (http://www.inkscape.org/) -->

<svg
   xmlns:dc="http://purl.org/dc/elements/1.1/"
   xmlns:cc="http://creativecommons.org/ns#"
   xmlns:rdf="http://www.w3.org/1999/02/22-rdf-syntax-ns#"
   xmlns:svg="http://www.w3.org/2000/svg"
   xmlns="http://www.w3.org/2000/svg"
   xmlns:sodipodi="http://sodipodi.sourceforge.net/DTD/sodipodi-0.dtd"
   xmlns:inkscape="http://www.inkscape.org/namespaces/inkscape"
   id="svg45230"
   version="1.1"
   inkscape:version="0.92.3 (2405546, 2018-03-11)"
   width="286.875"
   height="345.9375"
   viewBox="0 0 286.875 345.9375"
   sodipodi:docname="SpinningWheel.svg"
   inkscape:export-filename="/home/ademant/src/mt5/mods/farming/textures/farming_tool_spinningwheel.png"
   inkscape:export-xdpi="17.727682"
   inkscape:export-ydpi="17.727682">
  <metadata
     id="metadata45236">
    <rdf:RDF>
      <cc:Work
         rdf:about="">
        <dc:format>image/svg+xml</dc:format>
        <dc:type
           rdf:resource="http://purl.org/dc/dcmitype/StillImage" />
        <dc:title />
      </cc:Work>
    </rdf:RDF>
  </metadata>
  <defs
     id="defs45234" />
  <sodipodi:namedview
     pagecolor="#ffffff"
     bordercolor="#666666"
     borderopacity="1"
     objecttolerance="10"
     gridtolerance="10"
     guidetolerance="10"
     inkscape:pageopacity="0"
     inkscape:pageshadow="2"
     inkscape:window-width="1366"
     inkscape:window-height="749"
     id="namedview45232"
     showgrid="false"
     inkscape:zoom="1.936766"
     inkscape:cx="7.6441207"
     inkscape:cy="172.96875"
     inkscape:window-x="0"
     inkscape:window-y="0"
     inkscape:window-maximized="1"
     inkscape:current-layer="svg45230" />
  <path
     style="fill:#000000"
     d="m 212.52742,345.17235 c -1.69312,-0.19752 -2.99803,-1.117 -3.66611,-2.58326 -1.10903,-2.43407 -2.2372,-2.93018 -2.80305,-1.23264 -0.25557,0.76673 -14.90252,0.75942 -55.15624,-0.0275 -108.133169,-2.11385 -110.738396,-2.19248 -111.843506,-3.3755 -0.804545,-0.86127 -1.280221,-0.66215 -2.035052,0.85189 -0.803855,1.61237 -1.842374,1.97589 -5.644899,1.97589 l -4.659813,0 0,-9.375 c 0,-6.74653 0.432443,-10.29496 1.542402,-12.65625 2.316774,-4.92863 3.789045,-15.76212 6.485931,-47.72583 0.583296,-6.91326 1.599633,-14.50701 2.258526,-16.875 2.698623,-9.69852 4.216909,-16.90265 5.112442,-24.25806 0.845034,-6.94065 0.770239,-7.93607 -0.704421,-9.375 -0.907412,-0.88543 -5.127628,-4.72695 -9.378258,-8.53673 l -7.728419,-6.92688 -5.356602,0.53696 c -3.635531,0.36442 -6.561471,0.0867 -9.106601,-0.86433 -2.0625,-0.7707 -5.1210938,-1.81741 -6.796875,-2.32602 C 0.54479284,201.63971 0,200.99989 0,198.82072 c 0,-4.44814 1.0313762,-4.83312 13.59375,-5.07404 3.09375,-0.0593 6.363281,0.24354 7.265625,0.67303 C 22.301117,195.10594 22.5,194.6612 22.5,190.75097 l 0,-4.44964 4.758287,0.56355 4.758287,0.56355 -0.648312,-6.05385 c -0.51213,-4.7822 -0.308742,-6.76943 0.968261,-9.46052 1.47397,-3.10616 1.525518,-4.98793 0.584357,-21.33224 -0.962014,-16.70645 -0.494639,-27.68148 1.302665,-30.58958 0.343956,-0.55653 0.152618,-1.58151 -0.425195,-2.27773 -0.785583,-0.94657 -0.731506,-1.5865 0.21439,-2.53706 2.664776,-2.67792 3.304747,-4.79621 2.310597,-7.64804 -0.740639,-2.12459 -0.586641,-3.97002 0.661786,-7.930488 1.864449,-5.914715 1.903199,-5.857268 -5.578873,-8.270806 -7.012636,-2.262109 -9.677153,-6.048284 -6.495535,-9.229901 1.970027,-1.970028 4.644848,-1.860271 6.69339,0.274652 1.836212,1.91364 5.234094,3.877133 6.709491,3.877133 0.515275,0 1.070352,-1.160156 1.233508,-2.578125 0.235406,-2.045894 0.780492,-2.578125 2.640396,-2.578125 2.080202,0 2.375776,0.440054 2.628562,3.913434 0.266812,3.666081 0.533462,4.000986 4.21875,5.298628 2.163666,0.761855 6.850148,2.503457 10.414405,3.870226 L 65.929684,96.661069 65.35986,64.50241 c -0.313403,-17.687263 -0.254032,-33.84616 0.131937,-35.90866 0.422123,-2.255696 0.3083,-4.420303 -0.285643,-5.432147 -0.786652,-1.340144 -0.557669,-2.008742 1.126259,-3.288516 1.916305,-1.45638 2.007458,-1.887745 0.97622,-4.619805 -1.020154,-2.702697 -0.903281,-3.330157 1.133389,-6.0849011 1.248958,-1.6893065 2.286222,-4.3378033 2.305031,-5.8855486 0.02914,-2.39773086 0.435594,-2.8598976 2.747204,-3.12374378 2.626988,-0.29984332 2.695773,-0.20345769 2.169437,3.03997208 -0.361865,2.2299063 -0.109035,3.7841699 0.756333,4.6495372 2.212975,2.2129752 2.720744,6.1032162 1.039146,7.9613612 -1.403957,1.551355 -1.345834,1.817303 0.806109,3.688392 2.046519,1.779426 2.440233,4.880918 0.618791,4.874537 -0.331553,-0.0011 -0.463668,2.92818 -0.29359,6.509648 0.170079,3.581469 -0.565358,15.711325 -1.634303,26.955237 -1.068945,11.243912 -2.167343,23.185664 -2.440883,26.537227 -0.273541,3.351562 -0.725327,8.006613 -1.003969,10.344553 -0.493166,4.137909 -0.417034,4.293534 2.866581,5.859377 1.855262,0.88472 4.063953,1.60857 4.908203,1.60857 0.84425,0 2.219619,0.61958 3.056377,1.37683 1.349161,1.22097 1.782014,1.13972 3.82382,-0.71781 1.266342,-1.15206 5.888378,-5.230045 10.271191,-9.062189 4.38281,-3.832142 8.42855,-7.411468 8.99052,-7.954056 0.56198,-0.542589 6.14081,-5.581762 12.39741,-11.198163 6.2566,-5.616401 13.45973,-12.607776 16.00696,-15.536388 4.28578,-4.927464 12.34691,-11.150302 21.94624,-16.941525 15.94473,-9.619365 41.27767,-14.292366 58.80935,-10.848172 26.29664,5.166115 47.86479,20.255858 58.56536,40.974154 12.98548,25.142278 15.06825,47.672339 7.40143,80.063569 -5.70706,24.11155 -27.93145,48.84866 -53.08515,59.08706 -8.40728,3.42204 -14.86506,4.68024 -29.21434,5.69194 l -9.27597,0.65401 4.68145,4.32678 4.68146,4.32677 -0.57489,6.55047 c -0.3162,3.60275 -0.99085,6.49651 -1.49924,6.43055 -0.50839,-0.066 -2.50637,-0.40148 -4.43996,-0.74561 -4.39942,-0.78297 -4.43303,-0.29594 -0.6878,9.96623 1.5553,4.26164 2.63472,8.25165 2.3987,8.86669 -0.23601,0.61505 1.02361,4.0671 2.79917,7.67123 3.43709,6.97683 6.8634,18.82573 9.33835,32.2939 1.82102,9.90967 4.56075,18.54247 7.49929,23.62998 2.28712,3.9597 5.78739,19.92074 4.88458,22.27342 -0.59475,1.54991 -3.58291,2.26598 -7.533,1.80518 z m 5.38831,-3.68798 c -0.19042,-0.90234 -1.01898,-4.82906 -1.84125,-8.72603 l -1.49501,-7.08541 -4.4687,1.45352 -4.46872,1.45352 1.38368,3.52251 c 0.76103,1.93739 1.95921,3.52252 2.66262,3.52252 0.82101,0 1.20786,0.93269 1.08045,2.60496 -0.28275,3.71066 0.77097,4.89504 4.35501,4.89504 2.49562,0 3.06726,-0.33592 2.79192,-1.64063 z m -13.726,-4.15464 c 0.26448,-2.21054 -0.0499,-2.40946 -4.6875,-2.96643 -2.73404,-0.32835 -6.46417,-0.60067 -8.28919,-0.60515 -3.00574,-0.007 -3.31472,0.23462 -3.28125,2.56997 0.0363,2.53268 0.16093,2.58734 7.06821,3.10028 8.99071,0.66767 8.85505,0.69864 9.18973,-2.09867 z M 36.471395,332.2409 c 1.140095,-3.92376 1.943403,-7.24948 1.785127,-7.39049 -0.158274,-0.14102 -2.291678,-0.67641 -4.740897,-1.18975 l -4.453125,-0.93335 -0.01032,4.80822 c -0.0057,2.64452 -0.271811,6.39025 -0.591414,8.32384 -0.578481,3.4998 -0.566423,3.51563 2.678314,3.51563 3.253733,0 3.263025,-0.0125 5.332313,-7.1341 z m 110.462205,6.56769 c -0.31153,-0.31152 -1.12013,-0.34482 -1.79688,-0.074 -0.74787,0.29927 -0.52573,0.52142 0.56641,0.5664 0.98827,0.0407 1.54199,-0.18087 1.23047,-0.49239 z m 7.5,0 c -0.31153,-0.31152 -1.12013,-0.34482 -1.79688,-0.074 -0.74787,0.29927 -0.52573,0.52142 0.56641,0.5664 0.98827,0.0407 1.54199,-0.18087 1.23047,-0.49239 z m -36.02484,-1.06393 c -5.02014,-0.28649 -5.8976,-0.61242 -6.45448,-2.39749 -0.35448,-1.13626 -1.11292,-2.36567 -1.68545,-2.73202 -0.70927,-0.45388 -0.54118,-1.05131 0.52754,-1.875 0.86267,-0.6649 2.02613,-2.96139 2.58547,-5.10332 1.29855,-4.97264 9.53794,-12.78361 17.62388,-16.7075 3.78135,-1.83499 5.46441,-3.1313 4.9189,-3.7886 -1.37177,-1.65288 0.94545,-14.74128 2.94984,-16.66163 0.9628,-0.92242 1.75062,-2.82086 1.75073,-4.21875 3.4e-4,-4.87931 3.78008,-25.65937 5.70843,-31.3836 1.06911,-3.17359 2.70677,-6.8418 3.63926,-8.15158 0.93248,-1.30978 1.8474,-4.26989 2.03314,-6.57803 l 0.33773,-4.19661 -18.28125,-2.1397 c -29.94802,-3.5052 -71.568288,-8.6817 -73.789773,-9.17754 -2.253684,-0.50303 -2.531742,0.20084 -4.823577,12.21034 -0.590384,3.09368 -1.464889,5.75537 -1.943344,5.91485 -0.478455,0.15948 -0.640557,1.70336 -0.360227,3.43083 0.784012,4.83131 -1.376485,18.10508 -5.80327,35.65444 -5.651006,22.40262 -6.070531,24.83154 -6.517486,37.73438 l -0.397821,11.48437 3.458374,0.0473 c 1.902106,0.0261 9.153686,0.23411 16.114624,0.4624 6.960937,0.22829 20.882812,0.685 30.9375,1.01491 10.40242,0.34131 17.47316,0.91527 16.40625,1.33174 -1.03125,0.40255 -7.570313,0.56217 -14.53125,0.35471 -6.960938,-0.20746 -20.988281,-0.59068 -31.171875,-0.85159 L 43.125,330.9476 l 0,2.80745 c 0,1.54409 0.105469,2.86998 0.234375,2.94641 0.128906,0.0764 11.835937,0.41704 26.015625,0.75695 27.421772,0.65733 58.73978,0.84015 49.03376,0.28625 z m 23.38811,-1.84378 c -1.16015,-0.22346 -3.05859,-0.22346 -4.21875,0 -1.16015,0.22345 -0.21093,0.40628 2.10938,0.40628 2.32031,0 3.26953,-0.18283 2.10937,-0.40628 z M 183.75,334.20815 c 0,-0.26365 -1.6768,-2.93587 -3.72623,-5.93829 -5.47005,-8.01362 -7.47965,-13.02803 -7.50318,-18.72212 -0.0214,-5.1777 0.87114,-7.73813 3.83531,-11.00243 1.51357,-1.66684 1.5956,-2.32347 0.61481,-4.92188 -1.06809,-2.82969 -3.80224,-4.34358 -3.29883,-1.82655 0.13303,0.66516 -0.91054,1.30305 -2.41348,1.47525 -2.02126,0.23158 -2.76623,-0.14932 -3.14809,-1.60958 -0.91429,-3.49625 -4.09187,-3.48978 -7.30978,0.0149 -5.9749,6.50732 -13.42307,11.94647 -22.61864,16.51765 -11.25938,5.59713 -14.09243,7.31112 -17.35511,10.49985 -3.31024,3.23515 -6.45178,9.29551 -6.45178,12.44606 l 0,2.57504 22.26562,0.26914 c 12.2461,0.14803 27.85547,0.3666 34.6875,0.48572 6.83204,0.11912 12.42188,8.7e-4 12.42188,-0.26277 z m 20.15707,-7.25503 c -0.19673,-5.08418 -1.86739,-10.95531 -5.13532,-18.04687 -6.93023,-15.03895 -12.04353,-29.9002 -13.17588,-38.2943 -0.60651,-4.49604 -2.05482,-9.76634 -3.51736,-12.79945 l -2.48629,-5.15625 -1.12812,11.25 c -1.97364,19.68208 -1.91738,22.28495 0.59776,27.65488 1.8195,3.88471 2.03933,5.11981 1.13775,6.39257 -6.85441,9.67643 -6.43046,16.58077 1.80733,29.43399 l 2.83215,4.41896 8.59608,0.30835 c 4.72784,0.16959 9.06916,0.39592 9.64736,0.50293 0.70453,0.13039 0.9765,-1.73812 0.82455,-5.66481 z m 7.89669,-2.51425 c 1.12054,-0.70919 0.95215,-1.72348 -1.0482,-6.31377 -2.75733,-6.32734 -3.91269,-10.65238 -5.96884,-22.34385 -2.38407,-13.55616 -7.46254,-29.02878 -11.48001,-34.97624 -0.53608,-0.79363 -1.7065,-1.00584 -3.31752,-0.60149 -2.32853,0.58443 -2.48919,0.96852 -2.48919,5.95115 0,7.3131 1.87291,13.88633 8.2474,28.94542 2.99602,7.07776 6.69021,16.76098 8.20933,21.51826 2.2657,7.09531 3.09895,8.65102 4.63702,8.65752 1.03125,0.005 2.47575,-0.3723 3.21001,-0.837 z m -173.33274,-9.2045 c 0.04171,-7.87483 2.219151,-19.89131 7.811243,-43.1074 2.856453,-11.85884 4.342737,-20.10193 4.342737,-24.0853 0,-6.46469 -0.02712,-6.51504 -4.024712,-7.47129 -2.417302,-0.57824 -2.766322,-0.29208 -4.543138,3.7247 -2.398199,5.42153 -5.118192,20.38876 -5.949142,32.73617 -0.833398,12.38381 -3.117918,32.55999 -4.233928,37.39274 -1.465171,6.34475 -1.216377,6.73741 4.454045,7.02976 1.986822,0.10243 2.111322,-0.25891 2.142895,-6.21938 z m 105.38587,-17.34403 2.18403,-5.39091 -2.94234,-0.80694 c -1.61828,-0.44381 -3.25611,-0.53069 -3.63962,-0.19305 -0.38352,0.33764 -0.9749,3.26988 -1.31419,6.51608 -0.59703,5.71205 -0.55014,5.89193 1.45559,5.58396 1.53131,-0.23513 2.64281,-1.72594 4.25653,-5.70914 z m 8.25176,-1.36275 c 3.59488,-2.94107 7.20097,-6.36208 8.01354,-7.60222 1.26417,-1.92937 2.03664,-2.19178 5.35193,-1.81809 3.47541,0.39172 3.98256,0.18495 4.92329,-2.00716 0.57683,-1.34413 1.51661,-8.13918 2.08842,-15.10012 0.5718,-6.96094 1.43336,-15.39844 1.91459,-18.75 1.23528,-8.60342 1.13753,-14.05221 -0.25979,-14.48075 -0.64454,-0.19767 -2.69813,-0.57073 -4.56354,-0.82902 -3.26408,-0.45195 -3.43847,-0.32779 -4.63606,3.30095 -0.68442,2.07381 -1.79489,3.9818 -2.46771,4.23999 -0.73117,0.28058 -1.2274,2.03202 -1.23346,4.35351 -0.0144,5.53182 -2.07492,11.90211 -10.50489,32.47782 -1.69207,4.12997 -2.8269,8.50127 -2.75027,10.59384 0.072,1.96453 -0.71692,5.22366 -1.75866,7.26563 -1.03903,2.03666 -1.61113,3.70303 -1.27133,3.70303 0.3398,0 3.55907,-2.40634 7.15394,-5.34741 z m -4.14158,-15.05001 C 158.56036,253.67831 161.21256,243.75 158.04543,243.75 c -0.73127,0 -1.9412,-0.2347 -2.68874,-0.52156 -0.87327,-0.33511 -2.05902,0.66461 -3.31685,2.79646 -2.96215,5.02047 -4.84733,12.04073 -7.19339,26.7876 -0.28711,1.80469 -0.93251,5.57358 -1.43423,8.37531 -1.20492,6.72854 -1.15072,8.50108 0.25965,8.49289 0.64454,-0.004 2.57737,-3.69513 4.2952,-8.20312 z m 28.21523,-15.34381 c 2.08674,-17.72511 2.26177,-20.20284 1.36373,-19.3048 -0.52365,0.52365 -4.04609,30.50355 -4.09015,34.81166 -0.0529,5.16802 0.99212,-0.7754 2.72642,-15.50686 z m 15.58335,-9.2977 c 0.90897,-0.75436 0.54475,-2.75041 -1.66688,-9.13505 -1.5565,-4.49337 -3.09438,-8.45147 -3.41751,-8.79577 -0.32313,-0.3443 -2.60035,-0.92088 -5.06049,-1.2813 l -4.47298,-0.6553 3.37421,9.7188 c 1.85582,5.34534 3.55875,10.29757 3.78429,11.00498 0.45441,1.4252 5.39347,0.85818 7.45936,-0.85636 z m -29.66564,-17.9256 c 0.5684,-1.63048 0.92607,-3.06942 0.79484,-3.19763 -0.13123,-0.12821 -1.7843,-0.52182 -3.67351,-0.87467 -2.96442,-0.55368 -3.59147,-0.34902 -4.57792,1.4942 -0.99158,1.85278 -0.8643,2.36144 0.96064,3.83919 3.16099,2.55961 5.30945,2.14253 6.49595,-1.26109 z M 52.054731,236.95312 c 1.199734,-4.7934 3.041777,-14.31545 2.816702,-14.56035 -0.133187,-0.14492 -2.352592,-0.51345 -4.932012,-0.81894 l -4.689853,-0.55544 -1.126967,7.70737 c -0.619832,4.23905 -0.99239,7.81489 -0.827909,7.94629 3.684494,2.94359 8.058514,3.08394 8.760039,0.28108 z m 145.166869,-1.875 c 0.31092,-1.16015 0.57106,-3.23245 0.5781,-4.60509 0.0144,-2.79933 0.0793,-2.78023 -15.45595,-4.54104 -4.64063,-0.52598 -14.34375,-1.78695 -21.5625,-2.80215 -7.21875,-1.01521 -23.46094,-3.13236 -36.09375,-4.70478 -12.63281,-1.57241 -31.195313,-3.9234 -41.25,-5.22441 -16.3407,-2.11437 -30.786877,-3.88254 -36.09375,-4.41779 -1.540241,-0.15535 -2.031038,0.61906 -2.748973,4.33747 -0.660055,3.41863 -0.582612,4.70665 0.316393,5.26227 0.654701,0.40462 5.688614,1.25219 11.186473,1.88347 5.497859,0.63127 14.425794,1.72646 19.839857,2.43375 9.808026,1.2813 43.91397,5.34554 59.0625,7.03819 4.38281,0.48972 10.07812,1.1465 12.65625,1.45951 2.57812,0.31301 14.39062,1.74524 26.25,3.18275 11.85937,1.4375 21.82971,2.65719 22.15628,2.71043 0.32658,0.0532 0.84817,-0.85242 1.15907,-2.01258 z m -5.0341,-12.95581 c -5.63741,-4.85744 -6.91343,-5.47998 -14.40969,-7.03024 -4.01396,-0.8301 -7.38794,-1.36619 -7.49775,-1.1913 -0.10981,0.17489 -1.32677,1.85092 -2.70436,3.72452 l -2.50471,3.40654 7.23013,1.07256 c 3.97657,0.58991 9.55044,1.43343 12.38638,1.87449 2.83594,0.44106 6.42187,0.8399 7.96875,0.88631 l 2.8125,0.0844 -3.28125,-2.82725 z m -35.75552,-3.60308 c -2.06358,-1.67201 -2.12856,-2.00482 -0.96093,-4.92187 2.53816,-6.34108 2.64486,-6.11686 -3.26194,-6.85487 -4.90637,-0.61301 -5.57792,-0.48492 -6.75538,1.28841 -1.99378,3.0028 -6.24361,2.57345 -9.80791,-0.99085 -2.90025,-2.90024 -3.38577,-3.02265 -24.06851,-6.06783 -11.609707,-1.70932 -23.046085,-3.37602 -25.414171,-3.70375 l -4.305611,-0.59589 0.428902,2.9223 c 0.755021,5.14428 -0.945124,6.04923 -10.138807,5.39665 -9.155228,-0.64986 -16.973553,-2.86718 -19.34348,-5.48592 -1.306885,-1.44409 -1.428065,-2.28827 -0.631437,-4.39878 l 0.985819,-2.61174 -6.423013,-0.88775 c -4.903102,-0.67769 -6.423012,-0.61811 -6.423012,0.25177 0,1.50521 -3.253469,2.48733 -5.684116,1.71588 -1.70686,-0.54174 -1.799241,-0.41147 -0.786231,1.1087 0.631337,0.94741 3.511378,3.84939 6.400091,6.44884 l 5.252204,4.72629 12.643401,1.66668 c 6.95387,0.91667 19.182463,2.49192 27.174651,3.50055 7.992187,1.00863 19.17188,2.43411 24.84375,3.16774 5.67188,0.73363 14.10938,1.80945 18.75,2.39072 4.64062,0.58127 12.44531,1.60509 17.34375,2.27515 13.02595,1.78183 12.81016,1.78905 10.18198,-0.34043 z m 7.61261,-1.25361 c 0.54644,-0.64453 2.58569,-3.70312 4.53168,-6.79687 l 3.53815,-5.625 -3.92157,-2.01772 -3.92157,-2.01772 -2.79482,5.76772 c -4.20083,8.66935 -4.35049,9.52077 -1.88259,10.71033 2.82199,1.36026 3.28173,1.35811 4.45072,-0.0207 z M 42.395784,211.82386 c 0.675858,-3.95904 0.547789,-4.2815 -3.2287,-8.12946 C 34.668866,199.11105 33.75,198.80429 33.75,201.88595 c 0,1.20915 -0.792481,2.91563 -1.761068,3.79219 -1.702932,1.54113 -1.602346,1.74639 3.046875,6.21741 2.644368,2.54302 5.223802,4.49478 5.732073,4.33726 0.508272,-0.15752 1.240828,-2.14155 1.627904,-4.40895 z m 178.048946,0.64977 c 13.07176,-4.1609 26.83541,-12.44066 35.97482,-21.6413 17.30884,-17.42479 23.6409,-30.75011 27.19665,-57.23319 2.70627,-20.15608 0.41662,-37.070099 -7.29964,-53.923926 -6.51152,-14.22243 -13.34719,-22.462993 -26.00406,-31.348508 -9.88899,-6.942384 -14.1999,-9.161571 -24.37732,-12.549052 -7.74509,-2.577898 -10.19388,-2.964229 -18.75,-2.958072 -24.79122,0.01784 -42.05033,6.69609 -61.33635,23.73352 -5.207,4.599914 -8.9988,9.516384 -15.85261,20.554599 -2.93979,4.734608 -7.92308,18.222455 -9.43668,25.541449 -1.84633,8.92792 -1.92488,24.55499 -0.17674,35.16335 2.22517,13.50317 9.19127,30.38893 18.05056,43.7544 5.27094,7.95195 22.81664,23.28178 22.81664,19.9351 0,-0.51411 2.18287,-3.04979 4.85081,-5.63483 l 4.85081,-4.70008 -3.67893,-2.93104 c -7.48727,-5.96517 -16.08221,-15.44188 -19.37348,-21.36105 -8.5362,-15.35187 -12.03703,-28.89067 -12.24204,-47.34375 -0.15552,-13.99929 1.06462,-18.93318 8.40356,-33.981106 4.63498,-9.503671 6.54214,-12.123062 14.67942,-20.161455 13.39769,-13.234882 26.8945,-18.490234 47.52869,-18.506607 27.96443,-0.02219 51.75438,17.803649 60.45196,45.296729 6.86105,21.687769 4.3911,48.804469 -6.32081,69.394109 -6.81051,13.09067 -23.31844,27.57951 -37.4501,32.86959 -9.55184,3.57566 -26.87945,4.66544 -38.16594,2.40036 -5.59301,-1.12245 -6.08554,-1.08294 -7.30634,0.58615 -0.71997,0.98435 -1.52743,2.84442 -1.79435,4.13348 -0.26691,1.28906 -1.09078,3.72588 -1.83081,5.41515 -1.46109,3.33524 -1.78139,2.99031 4.98476,5.36798 0.64952,0.22825 3.81358,0.68804 7.03125,1.02176 3.21766,0.33372 6.06123,0.81534 6.31904,1.07027 0.97744,0.9665 24.09962,-0.64061 28.25723,-1.96403 z m -75.65022,-8.19238 2.54367,-3.84375 -2.11376,-2.25 c -1.16256,-1.2375 -2.45499,-2.25 -2.87205,-2.25 -0.41705,0 -1.80665,2.06886 -3.08799,4.59746 -2.39045,4.71732 -2.21757,5.59669 1.36062,6.9214 0.77344,0.28634 1.45566,0.55392 1.51604,0.59462 0.0604,0.0407 1.25445,-1.65567 2.65347,-3.76973 z m 7.21722,-0.86992 c -2.10256,-1.75173 -3.88673,-1.74426 -3.88673,0.0163 0,0.71178 2.08598,1.41004 5.15625,1.72601 0.51562,0.0531 -0.0557,-0.73098 -1.26953,-1.74231 z m -131.152355,-0.044 c 2.727927,-0.7291 3.515625,-1.40712 3.515625,-3.02609 0,-3.87603 -9.641618,-6.61924 -15.472725,-4.40226 -3.3528313,1.27475 -2.8469309,4.66672 0.9815644,6.58122 3.6136626,1.80708 6.5390456,2.03287 10.9755356,0.84713 z m 8.133816,-0.73785 c 0.662675,-1.23823 0.57162,-2.2413 -0.313319,-3.45152 -1.133036,-1.54952 -1.284446,-1.3894 -1.650425,1.74549 -0.435104,3.72698 0.464085,4.50817 1.963744,1.70603 z m 48.584934,-0.72041 c 2.729639,-0.73151 2.77156,-3.93941 0.09593,-7.34092 -1.566802,-1.99186 -2.567381,-2.44889 -4.510568,-2.06025 -2.327939,0.46559 -6.279984,-0.1129 -10.895771,-1.59486 -1.290689,-0.41439 -2.668572,-0.004 -4.071058,1.21228 -1.166015,1.01127 -2.578794,1.99161 -3.139509,2.17852 -1.520346,0.50678 -0.165081,3.18993 2.489936,4.92956 3.655628,2.39527 15.282244,3.9483 20.031038,2.67567 z m 60.373415,-3.80803 2.48279,-4.3913 -7.63904,-5.61352 C 128.59382,185.00881 121.14844,179.49554 116.25,175.84453 106.14986,168.31649 94.396228,160.3125 93.441664,160.3125 c -0.351782,0 -0.477629,4.0027 -0.279662,8.89489 l 0.359941,8.89489 4.801529,4.31699 c 4.085078,3.67283 4.801528,4.81958 4.801528,7.68531 0,2.08733 -0.71903,4.13368 -1.89064,5.38081 l -1.890626,2.01248 11.968756,1.63194 c 6.58282,0.89755 14.07814,1.97291 16.65626,2.38969 2.57812,0.41676 5.32031,0.80615 6.09375,0.86531 0.77344,0.0592 2.52351,-1.86852 3.88904,-4.28374 z m 42.0768,-9.19482 c 4.3449,-4.75291 15.88817,-23.34278 18.11798,-29.17816 3.05838,-8.00368 3.14179,-10.32877 0.40175,-11.19843 -1.68575,-0.53504 -2.81765,0.15895 -6.00961,3.68458 -4.15834,4.59304 -12.27966,20.39639 -16.85543,32.79913 -1.49286,4.04642 -4.10011,8.98227 -5.79389,10.96854 l -3.07962,3.6114 2.58576,1.35482 2.58576,1.35481 3.16663,-5.76085 c 1.74164,-3.16846 3.93795,-6.60459 4.88067,-7.63584 z M 3.75,198.22592 c 0,-0.80387 -0.421875,-1.20085 -0.9375,-0.88217 -0.515625,0.31868 -0.9375,0.97639 -0.9375,1.46158 0,0.48519 0.421875,0.88217 0.9375,0.88217 0.515625,0 0.9375,-0.65771 0.9375,-1.46158 z m 23.915619,-5.09114 c -2.996619,-3.1278 -3.322913,-3.09466 -3.703916,0.37619 -0.242011,2.20466 0.0379,2.42653 3.061363,2.42653 l 3.32773,0 -2.685177,-2.80272 z m 59.354471,1.59999 c -0.681362,-0.6615 -2.611675,-2.16803 -4.289584,-3.34785 -2.64859,-1.86233 -3.125851,-1.94938 -3.620509,-0.66033 -0.820135,2.13725 1.190163,4.10684 4.631695,4.53793 1.637382,0.2051 3.323598,0.44042 3.747148,0.52294 0.423548,0.0825 0.212611,-0.39119 -0.46875,-1.05269 z m 12.060113,-0.83569 c 2.732107,-2.56668 2.753687,-4.84456 0.06956,-7.34517 -4.973316,-4.63335 -12.16382,2.62425 -7.598252,7.66915 2.0686,2.28577 4.879445,2.16481 7.528652,-0.32398 z m 95.911307,-9.91471 -0.008,-11.95312 -3.82523,5.80228 c -3.06182,4.64429 -3.92639,6.91787 -4.33211,11.39216 -0.55176,6.08506 -0.32442,6.35331 5.5962,6.60306 L 195,195.9375 l -0.008,-11.95313 z m 4.69599,8.74856 c 0,-1.76252 -0.25607,-3.8719 -0.56905,-4.6875 -1.13572,-2.95962 -2.24345,-1.37732 -2.24345,3.20457 0,3.54167 0.34375,4.6875 1.40625,4.6875 0.97573,0 1.40625,-0.98107 1.40625,-3.20457 z m 12.74483,1.49167 c 6.42518,-1.68687 14.19627,-5.99938 23.11454,-12.82726 2.44922,-1.87513 4.45313,-3.76801 4.45313,-4.2064 0,-0.43839 -1.05469,-2.05051 -2.34375,-3.58247 -1.28906,-1.53197 -2.34375,-3.20331 -2.34375,-3.71411 0,-0.51079 -0.97058,-1.56466 -2.15682,-2.34192 -1.18626,-0.77727 -3.51616,-3.25156 -5.17757,-5.49845 -1.6614,-2.24688 -6.10253,-8.16802 -9.86915,-13.15807 l -6.84841,-9.07283 -2.53067,4.9979 c -1.39186,2.74884 -3.12994,5.22785 -3.86238,5.50893 -2.84806,1.0929 -3.60436,10.1709 -3.35053,40.21695 0.0537,6.35607 0.34279,6.45347 10.91536,3.67773 z m -27.82508,-4.8496 c -0.0472,-2.14648 -0.11935,-2.18593 -0.85725,-0.46875 -0.44315,1.03125 -0.82891,2.71875 -0.85725,3.75 -0.0426,1.54756 0.10717,1.62942 0.85725,0.46875 0.49984,-0.77344 0.8856,-2.46094 0.85725,-3.75 z m -152.868968,0.52662 c -0.182618,-0.16153 -1.38672,-0.61322 -2.675782,-1.00374 l -2.34375,-0.71005 2.34375,1.92877 c 1.289062,1.06083 2.493164,1.51251 2.675782,1.00374 0.182616,-0.50877 0.182616,-1.05719 0,-1.21872 z m 7.56534,-12.47975 C 39.345829,176.72893 38.225569,176.25 36.5625,176.25 l -2.8125,0 0,7.43126 c 0,6.32983 0.243164,7.47894 1.640625,7.75295 1.359866,0.26664 1.828952,-0.80452 2.741122,-6.25938 0.605273,-3.61959 1.132617,-7.10842 1.171875,-7.75296 z m 50.838175,7.63243 c 0.902485,-0.56799 0.459335,-0.93696 -1.548047,-1.28892 -2.545313,-0.44627 -2.839886,-0.87121 -3.100779,-4.473 -0.236471,-3.26462 -0.626639,-3.97988 -2.171008,-3.97988 -2.623014,0 -5.279806,1.56915 -6.492107,3.83436 -1.328276,2.4819 0.55959,5.4808 5.873557,9.33022 l 3.885805,2.81485 1.144063,-2.72091 c 0.629234,-1.49651 1.713066,-3.07903 2.408516,-3.51672 z m -32.813161,-0.62343 c -0.237488,-3.92379 0.105505,-6.0739 1.246784,-7.81571 0.865919,-1.32157 1.43522,-2.53732 1.265114,-2.70168 -0.170106,-0.16437 -3.051472,-2.28724 -6.403034,-4.7175 -7.718038,-5.59644 -9.328262,-7.61422 -9.354154,-11.72175 -0.02696,-4.27798 1.983875,-7.06223 6.075811,-8.41269 l 3.278343,-1.08195 0,-7.84072 c 0,-4.31239 -0.421875,-8.10144 -0.9375,-8.42012 -1.151404,-0.71161 -1.245601,-7.25723 -0.122097,-8.48438 1.203372,-1.31438 1.868597,-7.16894 1.059908,-9.32812 -1.132254,-3.0231 0.600433,-5.15625 4.188248,-5.15625 3.759545,0 4.279455,1.10951 3.843918,8.20312 -0.301339,4.90796 -0.294261,4.92188 2.50224,4.92188 2.028399,0 4.34085,-1.33102 8.356749,-4.81005 5.298237,-4.58994 5.479742,-4.89025 3.966374,-6.5625 -2.256112,-2.49298 -3.935366,-2.16902 -4.279944,0.82568 -0.250108,2.17365 -0.737878,2.57812 -3.109146,2.57812 -2.630093,0 -2.830965,-0.25368 -3.097211,-3.91136 -0.156592,-2.15125 -0.789404,-4.31978 -1.40625,-4.81897 C 63.334851,104.31169 47.354804,97.5 46.395273,97.5 c -0.251775,0 -0.457773,2.089528 -0.457773,4.64339 0,2.55386 -0.472331,5.68004 -1.049626,6.94706 -0.838139,1.83952 -0.743692,2.74047 0.46875,4.47147 1.622748,2.31679 2.038619,5.50058 0.718494,5.50058 -0.439936,0 -0.608498,2.00391 -0.374584,4.45313 0.233913,2.44921 -0.666335,11.83593 -2.000551,20.85937 -2.857979,19.32879 -3.413781,26.13981 -2.310065,28.30848 0.475681,0.93465 0.343845,4.30271 -0.31994,8.1736 -0.620956,3.62114 -0.915346,6.79755 -0.654201,7.0587 0.261145,0.26114 2.137709,0.7365 4.170141,1.05635 2.032433,0.31984 3.890563,0.77172 4.129177,1.00417 0.238615,0.23246 2.34799,0.29772 4.6875,0.14504 l 4.253655,-0.27759 -0.327614,-5.41288 z m 18.881219,4.38893 c 4.157645,-1.31958 -6.644004,-7.10223 -15.272355,-8.17604 -1.03468,-0.12876 -1.323016,0.56813 -1.09124,2.63749 0.397438,3.54842 1.262996,4.4282 5.583323,5.675 3.411466,0.98451 7.407809,0.93393 10.780272,-0.13645 z m 99.022315,-8.60638 c 1.76049,-4.50019 4.57582,-11.13529 6.25628,-14.74467 2.13102,-4.57714 3.22164,-8.54786 3.60498,-13.125 0.58112,-6.93885 0.60067,-6.94795 -3.02061,1.40625 -2.00732,4.63085 -10.08034,16.50538 -14.88775,21.89827 -2.23304,2.50499 -4.06007,4.89789 -4.06007,5.31757 0,0.82221 7.487,7.4854 8.37188,7.45071 0.2939,-0.0115 1.97478,-3.70293 3.73529,-8.20313 z m 23.88976,-6.44615 -0.74977,-8.29852 -0.73196,6.5625 c -0.81423,7.30013 -0.20317,12.46922 1.29675,10.9693 0.5958,-0.5958 0.66287,-3.944 0.18498,-9.23328 z M 94.6875,182.39908 c 0,-0.22738 -0.421875,-0.67415 -0.9375,-0.99283 -0.515625,-0.31868 -0.9375,-0.13264 -0.9375,0.41342 0,0.54605 0.421875,0.99283 0.9375,0.99283 0.515625,0 0.9375,-0.18604 0.9375,-0.41342 z m 146.71875,-1.46158 c 0.93327,-1.03125 1.48592,-1.875 1.22811,-1.875 -0.25782,0 -1.23234,0.84375 -2.16561,1.875 -0.93327,1.03125 -1.48592,1.875 -1.22811,1.875 0.25782,0 1.23234,-0.84375 2.16561,-1.875 z M 90.950302,179.29687 c 0.007,-1.41796 0.267181,-3.52734 0.578091,-4.6875 0.455895,-1.70116 0.181279,-2.10937 -1.419051,-2.10937 -1.715506,0 -1.984342,0.55038 -1.984342,4.0625 0,2.23438 0.28125,4.34375 0.625,4.6875 1.309448,1.30945 2.187973,0.52961 2.200302,-1.95313 z M 66.096865,179.06754 C 65.246337,177.69136 61.875,176.04933 61.875,177.01125 c 0,0.45498 0.949219,1.28501 2.109375,1.84454 2.719788,1.3117 2.797086,1.31945 2.11249,0.21175 z M 75,178.75717 c 0,-0.68355 1.053024,-2.2321 2.340053,-3.4412 2.542439,-2.3885 2.579845,-3.20605 0.103206,-2.25568 -0.866308,0.33243 -2.192316,1.79797 -2.946682,3.25676 C 72.875836,179.45122 72.811156,180 74.0625,180 74.578125,180 75,179.44072 75,178.75717 Z m 49.19607,-5.87986 c -8.62062,-15.12723 -12.31684,-27.90826 -13.25849,-45.84606 -0.88037,-16.77037 2.22644,-33.769111 7.69814,-42.119988 0.89005,-1.358377 1.44624,-2.64181 1.23597,-2.852072 -0.21026,-0.210261 -3.95881,2.808443 -8.33011,6.708233 -17.460511,15.577127 -22.05456,19.696517 -26.732765,23.970767 -2.682989,2.45132 -6.040601,5.37132 -7.46136,6.48889 -2.386634,1.87732 -2.459423,2.12245 -0.956573,3.22136 1.238596,0.90568 2.035651,0.93398 3.341266,0.1186 1.285633,-0.80288 2.25689,-0.80252 3.881872,0.002 1.191977,0.58976 3.643793,1.35474 5.44848,1.69997 3.737583,0.71498 6.5625,2.8488 6.5625,4.95702 0,0.7892 0.821231,2.30906 1.824966,3.37748 1.579097,1.68088 1.726547,2.6679 1.094418,7.32605 l -0.730546,5.38306 2.510282,0 c 4.23591,0 5.75712,2.6385 4.91559,8.526 -0.72356,5.0622 -0.72833,5.06808 -4.34981,5.36573 l -3.625456,0.298 2.159015,1.577 c 5.097151,3.72314 27.661771,18.803 28.219721,18.85917 0.33657,0.0338 -1.21463,-3.14361 -3.44711,-7.06109 z m -52.565671,3.85968 c 0.321015,-1.27902 1.834177,-3.25004 3.362582,-4.38004 l 2.778917,-2.05454 -5.630997,-3.6793 c -5.412184,-3.53631 -5.720474,-3.62066 -7.933565,-2.17059 -1.266412,0.82978 -2.58154,2.62022 -2.922507,3.97874 -0.533151,2.12424 0.02257,3.03628 3.969489,6.51462 2.524188,2.22452 4.860103,4.06079 5.190924,4.0806 0.330822,0.0198 0.864142,-1.01046 1.185157,-2.28949 z m 98.744971,-9.32988 c 6.64246,-8.81165 10.63065,-15.96215 12.04422,-21.59429 1.05528,-4.20456 -1.44417,-2.69623 -10.51572,6.3459 -6.77507,6.7531 -9.50419,10.27172 -12.09331,15.5918 l -3.3437,6.87057 2.07524,2.209 c 2.60753,2.77559 2.68293,2.71554 11.83327,-9.42298 z m 73.72447,7.67101 c -2.95914,-4.96582 -6.91234,-8.58674 -6.91234,-6.33132 0,1.22112 5.62211,7.5032 6.71495,7.5032 0.49263,0 0.58146,-0.52734 0.19739,-1.17188 z M 39.003749,170.42658 c 0.275064,-9.37169 1.601888,-22.5627 2.856157,-28.39533 1.421497,-6.61028 2.193962,-20.46997 1.196734,-21.47201 -0.29541,-0.29684 -1.830423,-0.79837 -3.41114,-1.11451 -2.668048,-0.53362 -2.957025,-0.32334 -4.032012,2.93389 -1.429083,4.33018 -0.999547,50.19222 0.480262,51.27801 1.748828,1.28319 2.812175,0.1029 2.909999,-3.23005 z m 216.063741,-4.75152 c 5.30064,-8.13462 9.31159,-18.65801 11.28739,-29.6144 0.97356,-5.3987 1.77012,-9.95528 1.77012,-10.12574 0,-0.17046 -0.58153,-0.30992 -1.29229,-0.30992 -0.88609,0 -1.61063,2.13643 -2.30508,6.79687 -2.1533,14.45087 -9.6801,33.7193 -15.08101,38.60706 -1.07064,0.96892 -1.94662,2.18355 -1.94662,2.69918 0,1.69292 3.96921,-2.53096 7.56749,-8.05305 z M 86.358137,161.54343 c -0.525872,-3.37779 -1.142639,-6.32793 -1.370594,-6.55588 -0.227954,-0.22797 -2.992497,0.11802 -6.143429,0.76883 l -5.728968,1.18329 -7.026323,-4.88472 c -3.864478,-2.6866 -7.026323,-4.45896 -7.026323,-3.93858 0,0.52036 0.471056,0.94613 1.046791,0.94613 0.610844,0 0.860342,0.97535 0.599091,2.342 -0.339131,1.77404 0.20887,2.85394 2.259748,4.45312 1.489097,1.16112 4.225657,3.48222 6.081245,5.158 1.855589,1.67579 3.691887,3.04688 4.080662,3.04688 0.388775,0 3.165849,1.90944 6.171276,4.24321 l 5.464412,4.2432 1.274271,-2.43203 c 1.00143,-1.9113 1.069549,-3.74701 0.318141,-8.57345 z m 70.112643,8.00418 c 0.56608,-1.62383 1.02922,-3.06847 1.02922,-3.21032 0,-0.14186 -1.00833,0.64023 -2.24073,1.73795 -1.23239,1.09773 -2.03101,2.54237 -1.7747,3.21031 0.77783,2.02697 1.90179,1.37284 2.98621,-1.73794 z m 93.14445,-3.37574 c 2.27383,-3.48046 5.01042,-8.4375 6.0813,-11.01562 2.01485,-4.85063 6.20776,-19.9141 7.21848,-25.93311 l 0.57649,-3.4331 -6.82388,-0.52716 c -3.75313,-0.28993 -12.20278,-0.6842 -18.777,-0.87614 -9.65084,-0.28176 -11.95312,-0.10225 -11.95312,0.93202 0,1.95856 -4.2582,8.26996 -7.07395,10.48484 l -2.51038,1.97466 2.68279,3.20564 c 1.47553,1.7631 5.65795,6.72783 9.29424,11.03275 3.6363,4.3049 7.33288,8.88179 8.21463,10.17085 1.47324,2.15378 8.39844,10.28753 8.77379,10.30496 0.0893,0.004 2.02279,-2.84012 4.29661,-6.32059 z M 91.779445,150.17512 c 0.510799,-7.89588 0.696127,-14.96229 0.411838,-15.70313 -0.698888,-1.82128 -1.841295,-1.69665 -2.691608,0.29363 -0.928524,2.17335 -1.438033,25.68458 -0.68568,31.64063 l 0.592114,4.6875 0.722305,-3.28125 c 0.397268,-1.80469 1.140232,-9.74152 1.651031,-17.63738 z M 62.54543,162.91557 c 1.435951,-0.88863 2.0643,-1.62691 1.396331,-1.64062 -2.014548,-0.0413 -5.822587,4.42906 -5.73221,6.72932 0.07144,1.8182 0.211774,1.71576 0.904805,-0.66052 0.45114,-1.54688 1.995123,-3.53956 3.431074,-4.42818 z m -5.292743,1.85005 c 0.737585,-1.67578 2.291864,-3.46399 3.453956,-3.97381 2.175405,-0.95438 2.369452,-2.42269 0.406638,-3.07696 C 60.500977,157.51074 60,158.00368 60,158.81026 c 0,1.6162 -3.873787,2.9526 -6.091654,2.10152 C 53.096014,160.60006 52.5,159.20109 52.5,157.6061 c 0,-5.55005 -2.067431,-7.27974 -5.089285,-4.25788 -2.590062,2.59005 -1.735118,5.5832 2.899997,10.15284 2.405267,2.37129 4.649445,4.31144 4.987062,4.31144 0.337617,0 1.217329,-1.37109 1.954913,-3.04688 z m 100.528273,-3.16327 c 1.45132,-2.49697 -0.0155,-1.73578 -7.64047,3.96499 -0.18053,0.13498 -0.0434,0.70624 0.30466,1.26948 0.64743,1.04756 5.83665,-2.65522 7.33581,-5.23447 z m 77.57066,2.53326 c -0.53039,-0.99105 -1.50633,-2.36215 -2.16875,-3.04688 -0.66242,-0.68474 -4.25154,-4.91175 -7.97582,-9.39335 -3.72428,-4.48161 -7.2909,-8.46944 -7.92583,-8.86185 -2.27964,-1.40889 13.11117,19.48323 16.13496,21.90228 2.13482,1.70787 3.02323,1.43235 1.93544,-0.6002 z m -81.78631,-3.90421 c 2.16408,-1.59148 3.93469,-3.27009 3.93469,-3.73023 0,-0.46015 4.18147,-4.47022 9.29216,-8.91127 7.28739,-6.33253 10.22024,-9.64629 13.59375,-15.35925 2.36588,-4.00652 4.30159,-7.76465 4.30159,-8.35138 0,-0.58672 -0.94922,-1.0536 -2.10938,-1.03751 -1.16015,0.0161 -11.76749,-0.16371 -23.57186,-0.39956 l -21.46249,-0.42883 0.54748,7.75788 c 0.33528,4.7511 1.61634,10.99217 3.30526,16.1027 2.85738,8.64625 6.68223,17.25105 7.66811,17.25105 0.31131,0 2.33661,-1.30212 4.50069,-2.8936 z m -96.100696,-4.84078 c 0.401612,-2.60259 0.211943,-3.51562 -0.730316,-3.51562 -1.801419,0 -2.919489,5.63688 -1.314785,6.62864 1.52113,0.94011 1.388501,1.142 2.045101,-3.11302 z m 120.191636,-12.4134 c 13.50309,-13.50838 14.07891,-14.30522 3.7073,-5.13037 -2.60162,2.30142 -7.24225,6.29175 -10.3125,8.86741 -7.82128,6.5613 -11.78869,10.78252 -11.13234,11.84453 0.78133,1.26422 1.7412,0.42103 17.73754,-15.58157 z m -76.10066,13.87049 c -2.359549,-0.45955 -5.122624,-4.18372 -4.205271,-5.66803 0.34349,-0.55576 1.888781,-1.21 3.433981,-1.45383 1.54519,-0.24385 0.70008,-0.38738 -1.87805,-0.31898 l -4.6875,0.12438 -0.288281,3.98437 -0.288278,3.98438 4.975778,-0.12767 c 2.736681,-0.0702 4.058601,-0.3063 2.937621,-0.52462 z M 81.5625,152.82208 c 0.939417,-0.60069 -0.305472,-0.70793 -3.75,-0.32303 -2.835938,0.31688 -5.332031,0.72798 -5.546875,0.91355 -0.91814,0.79303 8.021158,0.22522 9.296875,-0.59052 z m 107.79815,-5.55646 c 0.0188,-5.39978 -0.51377,-4.65628 -1.2869,1.79688 -0.43057,3.59384 -0.33136,4.73014 0.32739,3.75 0.51983,-0.77344 0.95161,-3.26953 0.95951,-5.54688 z m -70.21858,2.63611 c -0.49402,-1.23501 -0.92496,-1.75264 -0.95764,-1.15028 -0.0794,1.46308 1.01271,4.23891 1.48278,3.76884 0.20519,-0.20519 -0.0311,-1.38354 -0.52514,-2.61856 z M 57.1875,146.71875 c 0,-1.28906 -0.421875,-2.34375 -0.9375,-2.34375 -0.515625,0 -0.9375,1.05469 -0.9375,2.34375 0,1.28906 0.421875,2.34375 0.9375,2.34375 0.515625,0 0.9375,-1.05469 0.9375,-2.34375 z m 19.609375,2.07847 c -0.214844,-0.14591 -1.128906,-0.83038 -2.03125,-1.52104 -1.404358,-1.07492 -1.640625,-1.03672 -1.640625,0.26528 0,0.93504 0.782562,1.52104 2.03125,1.52104 1.117187,0 1.855468,-0.11938 1.640625,-0.26528 z m 118.446785,-4.83075 c 0.22446,-1.57999 0.70759,-3.55656 1.07361,-4.39237 0.43929,-1.00312 0.1159,-1.73054 -0.95141,-2.14011 -2.32174,-0.89093 -2.93473,0.16021 -3.68541,6.31967 -0.65097,5.34142 -0.62118,5.44385 1.24408,4.27897 1.05105,-0.65639 2.09465,-2.48617 2.31913,-4.06616 z M 84.436632,146.21702 C 85.81084,145.48156 86.25,144.23995 86.25,141.09019 c 0,-3.02995 -0.331032,-4.02931 -1.221486,-3.68761 -1.699765,0.65225 -4.403514,5.45384 -4.403514,7.82019 0,2.17478 1.079603,2.45638 3.811632,0.99425 z m 123.480458,-4.89681 c 1.69034,-3.2183 3.06144,-6.20679 3.04688,-6.64109 -0.0146,-0.4343 0.81728,-1.86229 1.84853,-3.1733 2.42672,-3.08508 2.38267,-4.94332 -0.11719,-4.94332 -1.71354,0 -1.91351,-0.39338 -1.42969,-2.8125 0.40861,-2.04303 0.20692,-2.8125 -0.73721,-2.8125 -1.34426,0 -12.71591,20.49318 -12.71591,22.91571 0,1.63424 2.55645,3.26931 5.15625,3.29787 1.35527,0.0149 2.7269,-1.60136 4.94834,-5.83087 z M 70.78125,145.3125 c 0.318674,-0.51563 0.132634,-0.9375 -0.413422,-0.9375 -0.546055,0 -0.992828,0.42187 -0.992828,0.9375 0,0.51562 0.186039,0.9375 0.413422,0.9375 0.227382,0 0.674154,-0.42188 0.992828,-0.9375 z M 78.75,143.25 c 0,-1.51446 -0.277229,-1.78527 -1.043314,-1.01918 -0.573822,0.57381 -0.759861,1.50194 -0.413421,2.0625 C 78.263007,145.86239 78.75,145.5136 78.75,143.25 Z m 111.5625,-7.50269 c 0,-0.60396 -1.36898,0.14098 -3.04219,1.65542 -1.67321,1.51444 -3.19202,2.83092 -3.37513,2.92552 -0.18311,0.0946 -0.0124,0.69072 0.37946,1.32469 0.50375,0.81507 1.49231,0.27984 3.37513,-1.82741 1.4645,-1.63906 2.66273,-3.47425 2.66273,-4.07822 z m -114.80031,4.49311 c 1.733677,-1.2677 1.68344,-1.39304 -1.221138,-3.04688 -2.94145,-1.67483 -3.976103,-4.31749 -2.135705,-5.45491 0.49794,-0.30775 2.607315,0.30873 4.6875,1.36996 3.283909,1.67533 3.782153,1.73225 3.782153,0.4321 0,-2.3109 -5.197016,-6.97819 -7.770204,-6.97819 -1.25919,0 -3.401017,0.87437 -4.759616,1.94304 -1.911938,1.50393 -2.47018,2.76688 -2.47018,5.58849 0,6.06 5.407823,9.42178 9.88719,6.14639 z m 141.05031,0.96812 c 0,-0.19467 -0.73828,-0.93296 -1.64063,-1.64063 -1.48693,-1.16613 -1.52009,-1.13297 -0.35396,0.35396 1.22472,1.56165 1.99459,2.05827 1.99459,1.28667 z M 58.470965,127.32985 c 0.432841,-6.33293 0.300942,-9.27379 -0.436374,-9.72947 -1.990783,-1.23038 -2.693392,1.93987 -2.707735,12.2176 -0.01247,8.93257 0.152703,10.04329 1.254701,8.4375 0.712028,-1.03754 1.541349,-5.83315 1.889408,-10.92563 z m 3.213093,10.52529 c -0.629382,-1.00781 -1.275699,-1.701 -1.436262,-1.54044 -0.555722,0.55572 0.893786,3.3728 1.735451,3.3728 0.464827,0 0.330193,-0.82456 -0.299189,-1.83236 z m 23.024479,-4.27569 C 84.124477,132.05741 82.5,131.66675 82.5,133.04832 c 0,0.47346 -0.274907,1.57722 -0.610903,2.45282 -0.524866,1.36778 -0.331731,1.44258 1.371338,0.53112 1.189865,-0.63679 1.768726,-1.61728 1.448102,-2.45281 z m 30.328083,-5.37633 c -0.22345,-1.16015 -0.40628,-0.21093 -0.40628,2.10938 0,2.32031 0.18283,3.26953 0.40628,2.10937 0.22346,-1.16015 0.22346,-3.05859 0,-4.21875 z m 80.84304,2.20888 c -2.95759,-5.67427 -3.18013,-9.30845 -0.8959,-14.63075 1.10649,-2.57812 3.11829,-5.84766 4.47067,-7.26562 2.27,-2.38011 2.31514,-2.57813 0.58765,-2.57813 -2.7407,0 -5.24994,2.16842 -5.51156,4.76295 -0.1258,1.24756 -0.28256,2.58471 -0.34838,2.97143 -0.0658,0.38671 -1.12513,0.70312 -2.35405,0.70312 -1.44596,0 -2.40742,0.66162 -2.72473,1.875 -0.36369,1.39077 -0.0288,1.875 1.29691,1.875 1.16223,0 1.78723,0.6557 1.78723,1.875 0,1.28444 -0.625,1.875 -1.98434,1.875 -1.60033,0 -1.87494,0.40821 -1.41906,2.10938 0.31092,1.16015 0.57106,2.42578 0.5781,2.8125 0.007,0.38671 0.85655,0.70312 1.8878,0.70312 1.70884,0 2.33633,1.01059 1.95312,3.14556 -0.22278,1.2412 1.88033,3.41694 3.30287,3.41694 0.96965,0 0.81912,-0.87734 -0.62633,-3.6505 z m -10.72341,0.838 c 0.93327,-1.03125 1.22443,-1.875 0.64703,-1.875 -0.57739,0 -1.50137,0.84375 -2.05328,1.875 -0.55191,1.03125 -0.84308,1.875 -0.64703,1.875 0.19604,0 1.12001,-0.84375 2.05328,-1.875 z M 92.8125,128.38217 c 0,-0.4852 -0.632813,-0.88217 -1.40625,-0.88217 -1.449759,0 -1.862535,1.10621 -0.806737,2.16202 0.748997,0.74899 2.212987,-0.0977 2.212987,-1.27985 z m 127.5,-2.86103 c 0,-1.63892 -0.91296,-0.78494 -2.36604,2.21324 l -1.47671,3.04687 1.92138,-2.21323 c 1.05675,-1.21729 1.92137,-2.58838 1.92137,-3.04688 z m -15.67423,-1.30239 2.52886,-5.15625 -2.23327,0 c -2.57743,0 -3.89855,-2.45391 -2.33524,-4.33758 1.38876,-1.67336 3.13319,-1.63518 4.57335,0.10011 1.00252,1.20797 1.35102,1.14337 2.69291,-0.49913 1.21258,-1.48421 2.19129,-1.75518 4.58825,-1.27034 1.67578,0.33897 3.04687,0.98546 3.04687,1.43663 0,0.45117 0.63281,0.82031 1.40625,0.82031 2.19832,0 1.66562,-1.49008 -1.4785,-4.13569 -4.14678,-3.48928 -7.15545,-3.99649 -11.09248,-1.87003 -4.66529,2.51981 -7.58527,7.23582 -7.58527,12.25083 0,3.68701 1.50197,7.81739 2.84272,7.81739 0.28417,0 1.65467,-2.32031 3.04555,-5.15625 z M 62.34375,125.625 c 0.318674,-0.51563 0.132634,-0.9375 -0.413422,-0.9375 -0.546055,0 -0.992828,0.42187 -0.992828,0.9375 0,0.51563 0.186039,0.9375 0.413422,0.9375 0.227382,0 0.674154,-0.42187 0.992828,-0.9375 z m 203.44288,-2.82121 c 0.35742,-0.57831 -1.65783,-0.90393 -5.34067,-0.86289 -3.8323,0.0426 -5.25978,0.32167 -4.05451,0.79241 2.78054,1.08597 8.73994,1.13068 9.39518,0.0705 z M 251.25,121.875 c -0.77344,-0.49984 -6.67969,-0.85972 -13.125,-0.79973 -14.05714,0.13081 -10.23763,1.43411 4.6875,1.59946 6.66148,0.0738 9.38914,-0.18473 8.4375,-0.79973 z M 73.587113,120.01073 c 0.328443,-0.53143 -0.04787,-0.68859 -0.882171,-0.36844 -1.624141,0.62324 -1.9213,1.29521 -0.57277,1.29521 0.485194,0 1.139918,-0.41705 1.454941,-0.92677 z m 106.502117,0.0335 c 2.87759,-0.41054 -0.27585,-0.80405 -10.40173,-1.29801 -7.99219,-0.38988 -15.75736,-0.79462 -17.25593,-0.89941 -3.87038,-0.27067 -4.21274,1.92944 -0.3791,2.43621 4.55993,0.6028 23.25388,0.44358 28.03676,-0.23879 z m -65.05261,-5.90357 c -0.22345,-1.16016 -0.40628,-0.21094 -0.40628,2.10937 0,2.32031 0.18283,3.26953 0.40628,2.10938 0.22346,-1.16016 0.22346,-3.0586 0,-4.21875 z m 30.98483,4.21875 c 0.27025,-0.82302 -0.89435,-1.17188 -3.91208,-1.17188 -2.36328,0 -4.29687,0.39094 -4.29687,0.86876 0,1.99685 7.56112,2.27605 8.20895,0.30312 z m 114.85998,0.70312 2.83456,0 -0.57123,-7.73437 c -0.81499,-11.03455 -4.59566,-24.124396 -9.07967,-31.436704 -2.47062,-4.028959 -2.6611,-3.914743 -17.61901,10.564921 -6.6364,6.424209 -13.21803,12.586433 -14.62585,13.693823 l -2.55966,2.01343 1.88642,2.008 c 1.03754,1.1044 2.76529,3.99485 3.83947,6.42321 l 1.95306,4.4152 12.85836,0.31979 c 7.0721,0.17589 14.07126,0.1877 15.55368,0.0262 1.48242,-0.16146 3.97087,-0.29355 5.52987,-0.29355 z m 4.9522,-21.730388 c -2.5153,-8.768763 -6.51602,-17.515711 -9.78687,-21.397458 -1.52327,-1.807767 -1.33739,-1.05982 0.81616,3.284096 4.04771,8.164659 7.47203,21.14837 8.14657,30.88874 0.75585,10.91432 2.5419,12.54533 2.92347,2.66969 0.2118,-5.48193 -0.28061,-9.10468 -2.09933,-15.445068 z m -51.46658,18.284948 c -0.96732,-0.96733 -2.39953,0.72071 -1.84267,2.17183 0.50685,1.32085 0.6619,1.31013 1.45124,-0.10033 0.48606,-0.86856 0.66221,-1.80073 0.39143,-2.0715 z m -137.372467,0.86732 c 1.166129,-1.48694 1.132969,-1.5201 -0.353958,-0.35397 C 75.738281,116.83808 75,117.57637 75,117.77104 c 0,0.7716 0.769862,0.27498 1.994583,-1.28666 z m 109.082277,-2.6823 c 1.68576,-4.03462 3.68164,-1.30311 -18.02755,-24.671976 -2.19006,-2.357495 -4.48179,-5.341042 -5.09272,-6.630104 -0.61094,-1.289063 -2.72038,-3.762849 -4.68766,-5.497303 l -3.57686,-3.153553 -1.80354,2.216053 c -2.92628,3.595593 -12.32497,22.903153 -13.74429,28.234643 -0.72022,2.7054 -1.31449,6.29 -1.32061,7.96579 l -0.0111,3.04687 4.92187,0.0342 c 9.26471,0.0644 25.41649,0.92914 25.87249,1.38515 0.25061,0.2506 3.9656,0.45563 8.25556,0.45563 l 7.79992,0 1.41452,-3.38542 z M 43.125,113.93923 c 0,-0.7553 -0.826037,-1.81535 -1.835637,-2.35566 -1.474547,-0.78915 -2.027796,-0.62336 -2.8125,0.84288 -1.419685,2.65271 -1.271269,2.88605 1.835637,2.88605 1.844976,0 2.8125,-0.47242 2.8125,-1.37327 z m 15.46875,-2.37673 c -0.453585,-0.73391 -0.992877,-0.78837 -1.617877,-0.16337 -0.515625,0.51563 -0.63133,1.43289 -0.257123,2.03837 0.453585,0.73391 0.992877,0.78837 1.617877,0.16337 0.515625,-0.51563 0.63133,-1.43289 0.257123,-2.03837 z m 23.4375,0.9375 c 0.318674,-0.51562 0.132634,-0.9375 -0.413422,-0.9375 -0.546055,0 -0.992828,0.42188 -0.992828,0.9375 0,0.51563 0.186039,0.9375 0.413422,0.9375 0.227382,0 0.674154,-0.42187 0.992828,-0.9375 z m -12.301523,-3.04687 c 0.43648,-1.81942 0.255552,-2.57813 -0.614803,-2.57813 -1.008516,0 -1.486697,3.32252 -0.798313,5.54688 0.236407,0.76389 0.803427,-0.42733 1.413116,-2.96875 z m 12.173363,-0.96224 c 1.960478,-1.43354 1.155096,-4.42839 -1.190892,-4.42839 -2.524698,0 -3.89505,1.89017 -2.822834,3.89363 1.095014,2.04604 1.815623,2.14205 4.013726,0.53476 z m 34.64805,-3.95964 c 0.36511,-3.16117 0.28202,-3.92434 -0.25517,-2.34375 -0.79606,2.34225 -1.2937,8.1601 -0.63484,7.42188 0.19175,-0.21485 0.59225,-2.5 0.89001,-5.07813 z m -73.057692,2.73582 c 0.73455,-1.9142 0.73455,-8.244936 0,-10.159142 C 43.180469,96.292312 42.356549,95.625 41.662514,95.625 c -2.087631,0 -4.328183,10.77183 -2.600014,12.5 1.15887,1.15887 3.85754,0.63635 4.430948,-0.85793 z m 143.874892,-2.03269 c -1.2966,-1.41797 -5.44271,-6.585943 -9.21357,-11.48438 -8.28222,-10.758828 -12.25758,-15.085741 -13.27969,-14.454042 -0.42094,0.26015 0.49943,2.218954 2.04525,4.352898 2.92815,4.042185 21.53295,24.163644 22.34231,24.163644 0.25474,0 -0.5977,-1.16016 -1.8943,-2.57812 z M 73.99653,104.18576 c 1.132016,-2.11519 0.238282,-3.30835 -1.436795,-1.91816 -1.957494,1.62457 -5.420673,0.57758 -6.6581,-2.01289 -0.89435,-1.872269 -3.200362,-3.161932 -10.463281,-5.851704 -8.231685,-3.048555 -9.587308,-3.30946 -11.645984,-2.241406 -2.207467,1.145247 -1.53503,1.534346 12.798249,7.405578 8.320472,3.408242 15.429694,6.235852 15.798271,6.283562 0.368577,0.0477 1.092015,-0.70152 1.60764,-1.66498 z m 121.6135,-0.35763 4.54622,-2.10938 -0.71376,-10.78125 c -0.39257,-5.929688 -0.73562,-17.477258 -0.76233,-25.661269 l -0.0486,-14.880019 -5.55906,0.628937 c -10.41334,1.178135 -21.35775,6.062787 -29.76487,13.284495 l -3.37997,2.903394 3.19081,4.127856 c 1.75494,2.270321 4.68918,5.834645 6.52054,7.92072 1.83133,2.086077 5.65002,6.85336 8.48596,10.593963 8.47462,11.178023 12.32985,16.081923 12.64291,16.081923 0.16275,0 2.34171,-0.94922 4.84212,-2.10937 z m 22.88679,-3.28125 c 1.74519,-1.933599 9.04986,-9.527763 16.2326,-16.875926 C 247.59809,70.505902 247.76381,70.282895 246.06964,68.410856 244.20404,66.349394 230.95833,57.369705 226.40625,55.080423 223.25872,53.497503 211.30402,50.625 207.8638,50.625 l -2.23481,0 -0.0509,25.623595 -0.0509,25.623595 3.87702,0.95515 c 2.13236,0.52534 4.33657,1.01816 4.89826,1.09516 0.56168,0.077 2.44913,-1.44203 4.19433,-3.37562 z m 19.49369,-15.044304 c 1.73071,-1.713426 2.90106,-3.361009 2.60077,-3.661293 -0.79402,-0.794025 -2.36738,0.691577 -12.99047,12.265904 l -9.56734,10.424063 8.40514,-7.956675 c 4.62282,-4.376172 9.82118,-9.358571 11.5519,-11.071999 z M 94.807088,100.54688 c 1.166128,-1.486936 1.132968,-1.520096 -0.353963,-0.35397 -0.902344,0.70767 -1.640625,1.44596 -1.640625,1.64063 0,0.7716 0.769862,0.27498 1.994588,-1.28666 z M 203.24818,78.75 c 0.18121,-12.16192 -0.52625,-17.409432 -2.13079,-15.804894 -0.30088,0.30088 -0.22015,9.358975 0.1794,20.1291 0.7793,21.006704 1.60109,19.185644 1.95139,-4.324206 z M 72.599776,78.28125 c 0.896461,-11.34375 2.216885,-25.054688 2.934275,-30.46875 1.433375,-10.817529 1.691655,-19.591915 0.623468,-21.180705 -0.378823,-0.56345 -2.002205,-1.279653 -3.607516,-1.591562 -4.666779,-0.906746 -5.282441,1.649977 -5.123291,21.276017 0.216458,26.693273 0.982493,52.254516 1.59573,53.246756 1.357225,2.196034 2.045575,-1.899 3.577334,-21.281756 z m 47.252754,14.0625 c -0.003,-0.515625 -0.58433,0.328125 -1.29263,1.875 -0.70831,1.546875 -1.27476,3.445312 -1.25879,4.21875 0.0159,0.773437 0.59766,-0.07031 1.29264,-1.875 0.69498,-1.804688 1.26143,-3.703125 1.25878,-4.21875 z M 38.964998,90.113607 C 37.451915,87.187627 35.815147,86.25 32.220489,86.25 c -1.888166,0 -2.152153,0.288593 -1.435458,1.569256 0.660269,1.179835 6.78471,4.427605 9.317169,4.940863 0.142147,0.02881 -0.369593,-1.16212 -1.137202,-2.646512 z M 43.125,86.71875 c 0,-1.804688 -0.372694,-3.28125 -0.828209,-3.28125 -0.932552,0 -2.049867,4.760442 -1.373991,5.854034 1.076867,1.742407 2.2022,0.427704 2.2022,-2.572784 z m 66.09375,1.40625 c 0.93327,-1.03125 1.48592,-1.875 1.22811,-1.875 -0.25782,0 -1.23234,0.84375 -2.16561,1.875 -0.93327,1.03125 -1.48592,1.875 -1.22811,1.875 0.25782,0 1.23234,-0.84375 2.16561,-1.875 z M 27.424057,84.806592 c 0.287233,-1.502558 0.06816,-2.253645 -0.593834,-2.035942 -1.301265,0.427934 -1.982861,4.41685 -0.754718,4.41685 0.491377,0 1.098226,-1.071409 1.348552,-2.380908 z M 118.59375,79.6875 c 0.93327,-1.03125 1.48592,-1.875 1.22811,-1.875 -0.25782,0 -1.23234,0.84375 -2.16561,1.875 -0.93327,1.03125 -1.48592,1.875 -1.22811,1.875 0.25782,0 1.23234,-0.84375 2.16561,-1.875 z m 129.3582,-3.732791 c 5.15368,-5.277849 3.40336,-5.801646 -2.03874,-0.61011 -2.72808,2.60247 -3.93451,4.308016 -3.0566,4.32117 0.7977,0.01195 3.0906,-1.658025 5.09534,-3.71106 z M 163.1542,75.17748 c -0.50235,-0.871052 -1.74633,-2.638418 -2.76441,-3.92748 -1.48018,-1.874168 -2.08623,-2.109325 -3.02485,-1.1737 -0.93944,0.936446 -0.54554,1.818244 1.97293,4.416646 3.14508,3.244899 5.54076,3.674611 3.81633,0.684534 z m 87.1583,-7.093938 c 0,-0.194677 -0.73828,-0.932959 -1.64063,-1.640625 -1.48693,-1.166129 -1.52009,-1.132969 -0.35396,0.353958 1.22472,1.561639 1.99459,2.058262 1.99459,1.286667 z m -4.7433,-4.680053 c -0.74275,-0.681653 -3.03795,-2.172563 -5.10045,-3.313134 -2.26981,-1.255213 -2.83699,-1.404785 -1.43693,-0.378934 1.27219,0.932156 3.38157,2.608158 4.6875,3.724449 2.49662,2.134068 4.17841,2.104628 1.84988,-0.03238 z m -42.27063,-8.425566 c 0.1194,-2.306676 -0.22236,-4.46556 -0.75949,-4.797518 -0.63285,-0.391121 -0.97658,1.250282 -0.97658,4.663345 0,6.166919 1.41812,6.276519 1.73607,0.134173 z M 236.25,57.689235 c 0,-0.239671 -0.94922,-0.895757 -2.10938,-1.457968 -2.02559,-0.9816 -2.03708,-0.96429 -0.28956,0.435765 1.91274,1.532426 2.39894,1.739597 2.39894,1.022203 z M 74.44128,19.322351 c -0.290733,-0.757639 -1.265125,-1.10253 -2.328937,-0.824337 -3.033782,0.793352 -3.039799,2.126986 -0.0096,2.126986 2.037532,0 2.697363,-0.367551 2.338532,-1.302649 z M 74.8125,14.8125 C 77.643114,11.981886 74.768037,7.4922034 71.309927,9.3429279 69.457894,10.334107 68.659596,13.972095 70,15.3125 c 0.994996,0.994997 3.58678,0.72572 4.8125,-0.5 z"
     id="path45240"
     inkscape:connector-curvature="0" />
</svg>
